<?xml version="1.0" encoding="utf-8"?>
<!-- Generator: Adobe Illustrator 27.5.0, SVG Export Plug-In . SVG Version: 6.00 Build 0)  -->
<svg version="1.1" xmlns="http://www.w3.org/2000/svg" xmlns:xlink="http://www.w3.org/1999/xlink" x="0px" y="0px"
	 viewBox="0 0 800 800" style="enable-background:new 0 0 800 800;" xml:space="preserve">
<g id="Background">
	<rect x="0" style="fill:#E4E4E4;" width="801.98" height="801.98"/>
</g>
<g id="Objects">
	<rect x="153.96" y="655.83" style="fill:none;" width="492.079" height="70.883"/>
	<text transform="matrix(1 0 0 1 273.9341 685.158)" style="font-family:'Dosis-Bold'; font-size:39px;">- JOURNALIST -</text>
	<g>
		<g>
			<path d="M288.492,724.864v-0.257c-0.349,0.398-0.692,0.724-1.031,0.973c-0.338,0.251-0.706,0.441-1.102,0.57
				c-0.396,0.132-0.827,0.195-1.296,0.195c-0.621,0-1.196-0.131-1.725-0.393c-0.528-0.263-0.986-0.639-1.372-1.126
				c-0.387-0.487-0.68-1.06-0.879-1.719c-0.199-0.659-0.299-1.371-0.299-2.137c0-1.621,0.396-2.886,1.188-3.791
				c0.792-0.904,1.833-1.357,3.125-1.357c0.747,0,1.377,0.129,1.89,0.384c0.513,0.257,1.013,0.652,1.501,1.183v-3.827
				c0-0.532,0.105-0.934,0.318-1.206c0.211-0.273,0.514-0.408,0.907-0.408c0.393,0,0.694,0.125,0.907,0.375
				c0.212,0.251,0.318,0.618,0.318,1.106v11.436c0,0.494-0.113,0.864-0.342,1.111c-0.228,0.246-0.522,0.37-0.883,0.37
				c-0.354,0-0.647-0.128-0.879-0.384C288.607,725.704,288.492,725.339,288.492,724.864z M283.392,721.055
				c0,0.703,0.109,1.301,0.328,1.795c0.219,0.494,0.518,0.866,0.897,1.115c0.38,0.251,0.795,0.377,1.244,0.377
				c0.456,0,0.872-0.119,1.249-0.357c0.377-0.236,0.677-0.602,0.902-1.091c0.225-0.491,0.337-1.105,0.337-1.839
				c0-0.69-0.112-1.284-0.337-1.782c-0.225-0.496-0.528-0.876-0.912-1.14c-0.383-0.262-0.803-0.393-1.258-0.393
				c-0.475,0-0.899,0.135-1.273,0.403c-0.374,0.269-0.663,0.654-0.869,1.158C283.494,719.806,283.392,720.39,283.392,721.055z"/>
			<path d="M299.926,721.711h-5.071c0.006,0.588,0.125,1.107,0.356,1.557c0.23,0.45,0.538,0.789,0.921,1.017
				c0.383,0.229,0.806,0.341,1.268,0.341c0.31,0,0.593-0.035,0.85-0.107c0.257-0.074,0.505-0.187,0.746-0.343
				c0.241-0.154,0.462-0.321,0.665-0.499c0.202-0.178,0.464-0.419,0.788-0.723c0.133-0.113,0.323-0.171,0.571-0.171
				c0.266,0,0.48,0.074,0.645,0.22c0.165,0.146,0.248,0.351,0.248,0.617c0,0.234-0.093,0.507-0.275,0.821
				c-0.185,0.314-0.462,0.614-0.832,0.902c-0.372,0.288-0.835,0.526-1.397,0.717c-0.56,0.19-1.204,0.285-1.933,0.285
				c-1.664,0-2.96-0.476-3.884-1.425c-0.924-0.949-1.386-2.238-1.386-3.865c0-0.767,0.113-1.478,0.341-2.132
				c0.229-0.656,0.561-1.218,0.997-1.687c0.437-0.469,0.975-0.827,1.615-1.078c0.639-0.25,1.349-0.374,2.127-0.374
				c1.013,0,1.882,0.212,2.606,0.641c0.726,0.427,1.27,0.979,1.63,1.656c0.36,0.678,0.542,1.369,0.542,2.07
				c0,0.653-0.187,1.075-0.56,1.27C301.13,721.614,300.604,721.711,299.926,721.711z M294.855,720.239h4.702
				c-0.063-0.887-0.303-1.551-0.717-1.99c-0.415-0.44-0.96-0.66-1.638-0.66c-0.646,0-1.177,0.223-1.591,0.669
				C295.195,718.704,294.944,719.365,294.855,720.239z"/>
			<path d="M311.741,722.954c0,0.716-0.173,1.329-0.522,1.839c-0.348,0.51-0.862,0.896-1.543,1.159
				c-0.68,0.263-1.508,0.393-2.483,0.393c-0.931,0-1.728-0.143-2.394-0.428c-0.664-0.284-1.156-0.642-1.472-1.067
				c-0.317-0.429-0.475-0.857-0.475-1.288c0-0.285,0.101-0.528,0.304-0.73c0.202-0.202,0.459-0.304,0.77-0.304
				c0.271,0,0.48,0.066,0.626,0.199c0.146,0.133,0.286,0.32,0.418,0.56c0.266,0.464,0.585,0.807,0.956,1.036
				c0.37,0.228,0.875,0.342,1.515,0.342c0.519,0,0.945-0.116,1.277-0.347c0.332-0.232,0.498-0.496,0.498-0.794
				c0-0.456-0.172-0.787-0.518-0.996c-0.345-0.209-0.913-0.409-1.705-0.6c-0.893-0.221-1.619-0.454-2.18-0.698
				c-0.561-0.242-1.008-0.565-1.344-0.963c-0.335-0.399-0.503-0.891-0.503-1.473c0-0.518,0.155-1.01,0.465-1.473
				c0.311-0.461,0.768-0.83,1.374-1.106c0.603-0.276,1.333-0.414,2.188-0.414c0.671,0,1.275,0.069,1.809,0.21
				c0.536,0.138,0.983,0.326,1.34,0.561c0.358,0.233,0.63,0.493,0.816,0.777c0.186,0.285,0.28,0.563,0.28,0.837
				c0,0.297-0.1,0.541-0.298,0.732c-0.199,0.188-0.482,0.285-0.85,0.285c-0.266,0-0.492-0.076-0.679-0.229
				c-0.186-0.151-0.4-0.379-0.641-0.683c-0.196-0.253-0.426-0.456-0.693-0.608c-0.266-0.152-0.627-0.228-1.083-0.228
				c-0.469,0-0.858,0.099-1.168,0.3c-0.31,0.198-0.465,0.446-0.465,0.744c0,0.273,0.114,0.496,0.341,0.67
				c0.228,0.175,0.535,0.319,0.922,0.433c0.386,0.113,0.917,0.252,1.596,0.417c0.803,0.197,1.46,0.432,1.97,0.703
				c0.509,0.271,0.896,0.594,1.16,0.965C311.61,722.057,311.741,722.479,311.741,722.954z"/>
			<path d="M314.39,714.597c-0.361,0-0.669-0.111-0.926-0.333c-0.256-0.221-0.385-0.534-0.385-0.94c0-0.368,0.131-0.669,0.394-0.907
				c0.263-0.238,0.569-0.356,0.916-0.356c0.336,0,0.633,0.107,0.893,0.323c0.26,0.216,0.39,0.528,0.39,0.94
				c0,0.399-0.127,0.711-0.381,0.936C315.039,714.484,314.738,714.597,314.39,714.597z M315.672,717.275v7.493
				c0,0.52-0.124,0.913-0.371,1.179c-0.247,0.266-0.56,0.398-0.94,0.398s-0.689-0.136-0.926-0.408
				c-0.238-0.272-0.356-0.662-0.356-1.169v-7.418c0-0.512,0.118-0.898,0.356-1.158c0.237-0.26,0.546-0.39,0.926-0.39
				s0.693,0.13,0.94,0.39C315.549,716.452,315.672,716.813,315.672,717.275z"/>
			<path d="M327.031,717.703v7.531c0,0.861-0.093,1.602-0.277,2.224c-0.182,0.619-0.477,1.133-0.883,1.538
				c-0.405,0.404-0.935,0.706-1.59,0.901c-0.655,0.197-1.471,0.295-2.446,0.295c-0.893,0-1.69-0.125-2.393-0.375
				c-0.702-0.251-1.243-0.573-1.624-0.969c-0.379-0.396-0.57-0.803-0.57-1.221c0-0.316,0.108-0.575,0.324-0.773
				c0.215-0.2,0.475-0.3,0.778-0.3c0.38,0,0.712,0.168,0.997,0.503c0.139,0.171,0.283,0.345,0.432,0.519
				c0.149,0.175,0.314,0.323,0.494,0.447c0.181,0.122,0.398,0.214,0.65,0.274c0.253,0.059,0.545,0.09,0.874,0.09
				c0.671,0,1.192-0.093,1.563-0.28c0.371-0.187,0.63-0.448,0.779-0.784c0.149-0.334,0.236-0.693,0.261-1.077
				c0.025-0.384,0.044-0.999,0.057-1.849c-0.399,0.559-0.859,0.983-1.382,1.274c-0.522,0.291-1.145,0.436-1.866,0.436
				c-0.868,0-1.625-0.222-2.275-0.665c-0.648-0.443-1.147-1.063-1.495-1.861c-0.349-0.799-0.522-1.719-0.522-2.764
				c0-0.778,0.105-1.482,0.317-2.108c0.213-0.628,0.515-1.156,0.907-1.587c0.393-0.431,0.845-0.755,1.358-0.974
				c0.513-0.218,1.076-0.327,1.691-0.327c0.734,0,1.371,0.142,1.909,0.422c0.538,0.283,1.039,0.725,1.5,1.326v-0.352
				c0-0.449,0.11-0.797,0.332-1.045c0.222-0.246,0.507-0.37,0.855-0.37c0.5,0,0.832,0.164,0.997,0.489
				C326.948,716.618,327.031,717.089,327.031,717.703z M319.518,720.989c0,1.051,0.229,1.846,0.688,2.384
				c0.459,0.539,1.053,0.808,1.781,0.808c0.43,0,0.837-0.116,1.22-0.347c0.384-0.232,0.695-0.58,0.936-1.045
				c0.24-0.466,0.361-1.03,0.361-1.695c0-1.057-0.232-1.881-0.698-2.469c-0.466-0.589-1.078-0.884-1.838-0.884
				c-0.741,0-1.334,0.282-1.78,0.846C319.741,719.149,319.518,719.951,319.518,720.989z"/>
			<path d="M331.152,717.237v0.314c0.455-0.602,0.954-1.043,1.496-1.325c0.542-0.281,1.163-0.423,1.866-0.423
				c0.684,0,1.295,0.149,1.833,0.447c0.538,0.298,0.941,0.719,1.206,1.262c0.172,0.317,0.282,0.66,0.332,1.026
				c0.051,0.368,0.077,0.836,0.077,1.406v4.824c0,0.52-0.119,0.913-0.357,1.179c-0.237,0.266-0.546,0.398-0.926,0.398
				c-0.387,0-0.7-0.136-0.94-0.408c-0.241-0.272-0.361-0.662-0.361-1.169v-4.321c0-0.854-0.119-1.509-0.356-1.961
				c-0.238-0.452-0.71-0.68-1.42-0.68c-0.461,0-0.883,0.138-1.263,0.413c-0.38,0.276-0.659,0.655-0.836,1.136
				c-0.126,0.387-0.19,1.107-0.19,2.165v3.248c0,0.525-0.123,0.921-0.365,1.184c-0.244,0.263-0.559,0.393-0.945,0.393
				c-0.375,0-0.681-0.136-0.922-0.408c-0.24-0.272-0.361-0.662-0.361-1.169v-7.493c0-0.494,0.107-0.863,0.323-1.107
				c0.215-0.243,0.51-0.365,0.883-0.365c0.229,0,0.435,0.054,0.619,0.162c0.183,0.108,0.331,0.27,0.441,0.483
				C331.097,716.664,331.152,716.927,331.152,717.237z"/>
			<path d="M346.926,721.711h-5.071c0.007,0.588,0.125,1.107,0.356,1.557c0.231,0.45,0.538,0.789,0.921,1.017
				c0.382,0.229,0.805,0.341,1.267,0.341c0.31,0,0.594-0.035,0.851-0.107c0.255-0.074,0.504-0.187,0.746-0.343
				c0.24-0.154,0.461-0.321,0.665-0.499c0.202-0.178,0.464-0.419,0.788-0.723c0.133-0.113,0.323-0.171,0.57-0.171
				c0.266,0,0.481,0.074,0.646,0.22c0.165,0.146,0.247,0.351,0.247,0.617c0,0.234-0.091,0.507-0.275,0.821
				c-0.184,0.314-0.461,0.614-0.832,0.902c-0.371,0.288-0.835,0.526-1.396,0.717c-0.56,0.19-1.205,0.285-1.933,0.285
				c-1.665,0-2.96-0.476-3.885-1.425c-0.923-0.949-1.386-2.238-1.386-3.865c0-0.767,0.114-1.478,0.342-2.132
				c0.228-0.656,0.561-1.218,0.998-1.687c0.436-0.469,0.975-0.827,1.614-1.078c0.639-0.25,1.349-0.374,2.128-0.374
				c1.013,0,1.881,0.212,2.606,0.641c0.726,0.427,1.269,0.979,1.63,1.656c0.36,0.678,0.542,1.369,0.542,2.07
				c0,0.653-0.186,1.075-0.561,1.27C348.13,721.614,347.605,721.711,346.926,721.711z M341.855,720.239h4.701
				c-0.063-0.887-0.302-1.551-0.717-1.99c-0.415-0.44-0.961-0.66-1.638-0.66c-0.646,0-1.177,0.223-1.592,0.669
				C342.194,718.704,341.944,719.365,341.855,720.239z"/>
			<path d="M357.496,724.864v-0.257c-0.348,0.398-0.691,0.724-1.03,0.973c-0.339,0.251-0.706,0.441-1.102,0.57
				c-0.395,0.132-0.828,0.195-1.296,0.195c-0.622,0-1.196-0.131-1.724-0.393c-0.529-0.263-0.986-0.639-1.373-1.126
				c-0.387-0.487-0.679-1.06-0.878-1.719c-0.2-0.659-0.299-1.371-0.299-2.137c0-1.621,0.395-2.886,1.187-3.791
				c0.792-0.904,1.833-1.357,3.125-1.357c0.747,0,1.378,0.129,1.89,0.384c0.513,0.257,1.013,0.652,1.5,1.183v-3.827
				c0-0.532,0.106-0.934,0.319-1.206c0.211-0.273,0.515-0.408,0.907-0.408c0.392,0,0.694,0.125,0.907,0.375
				c0.212,0.251,0.318,0.618,0.318,1.106v11.436c0,0.494-0.114,0.864-0.342,1.111c-0.228,0.246-0.522,0.37-0.883,0.37
				c-0.355,0-0.647-0.128-0.879-0.384C357.612,725.704,357.496,725.339,357.496,724.864z M352.396,721.055
				c0,0.703,0.108,1.301,0.327,1.795c0.218,0.494,0.518,0.866,0.898,1.115c0.379,0.251,0.794,0.377,1.243,0.377
				c0.456,0,0.873-0.119,1.249-0.357c0.377-0.236,0.678-0.602,0.902-1.091c0.225-0.491,0.337-1.105,0.337-1.839
				c0-0.69-0.112-1.284-0.337-1.782c-0.224-0.496-0.528-0.876-0.912-1.14c-0.384-0.262-0.803-0.393-1.259-0.393
				c-0.474,0-0.899,0.135-1.272,0.403c-0.373,0.269-0.663,0.654-0.869,1.158C352.499,719.806,352.396,720.39,352.396,721.055z"/>
			<path d="M368.094,713.428v3.96c0.487-0.506,0.984-0.895,1.491-1.163c0.506-0.269,1.134-0.403,1.881-0.403
				c0.861,0,1.616,0.204,2.266,0.611c0.648,0.41,1.151,1.002,1.51,1.777c0.357,0.774,0.537,1.695,0.537,2.76
				c0,0.785-0.1,1.504-0.299,2.16c-0.2,0.655-0.49,1.224-0.869,1.704c-0.38,0.481-0.841,0.854-1.382,1.117
				c-0.542,0.263-1.139,0.393-1.79,0.393c-0.399,0-0.775-0.047-1.125-0.143c-0.352-0.095-0.651-0.219-0.898-0.375
				c-0.246-0.154-0.457-0.314-0.631-0.479c-0.174-0.164-0.404-0.412-0.689-0.741v0.257c0,0.487-0.117,0.856-0.352,1.107
				c-0.233,0.25-0.531,0.374-0.892,0.374c-0.367,0-0.66-0.124-0.879-0.374c-0.219-0.251-0.328-0.62-0.328-1.107v-11.322
				c0-0.525,0.106-0.923,0.317-1.191c0.212-0.269,0.509-0.403,0.889-0.403c0.399,0,0.706,0.128,0.921,0.384
				C367.986,712.589,368.094,712.953,368.094,713.428z M368.218,721.131c0,1.032,0.236,1.824,0.708,2.378
				c0.472,0.555,1.091,0.833,1.857,0.833c0.652,0,1.214-0.283,1.686-0.851c0.472-0.567,0.708-1.379,0.708-2.437
				c0-0.684-0.097-1.273-0.294-1.767c-0.197-0.494-0.475-0.876-0.835-1.145c-0.361-0.268-0.783-0.403-1.264-0.403
				c-0.494,0-0.935,0.135-1.32,0.403c-0.386,0.269-0.69,0.658-0.912,1.168C368.329,719.821,368.218,720.428,368.218,721.131z"/>
			<path d="M379.14,726.669l0.237-0.58l-3.191-8.035c-0.196-0.461-0.295-0.798-0.295-1.007c0-0.222,0.058-0.427,0.171-0.616
				c0.114-0.19,0.271-0.343,0.47-0.456c0.2-0.115,0.407-0.172,0.622-0.172c0.373,0,0.655,0.119,0.846,0.357
				c0.19,0.237,0.357,0.577,0.503,1.021l2.194,6.383l2.08-5.936c0.164-0.479,0.313-0.857,0.446-1.13
				c0.133-0.273,0.273-0.456,0.422-0.55c0.149-0.096,0.359-0.144,0.632-0.144c0.197,0,0.385,0.052,0.565,0.157
				c0.18,0.104,0.319,0.245,0.418,0.423c0.098,0.177,0.148,0.363,0.148,0.56c-0.026,0.12-0.066,0.291-0.124,0.514
				c-0.058,0.221-0.126,0.447-0.208,0.674l-3.381,8.852c-0.292,0.778-0.577,1.389-0.855,1.832c-0.279,0.443-0.647,0.785-1.106,1.021
				c-0.46,0.238-1.078,0.357-1.857,0.357c-0.759,0-1.33-0.082-1.708-0.246c-0.381-0.166-0.57-0.467-0.57-0.903
				c0-0.297,0.089-0.527,0.271-0.688c0.18-0.161,0.448-0.243,0.801-0.243c0.14,0,0.276,0.02,0.409,0.059
				c0.164,0.037,0.307,0.057,0.427,0.057c0.297,0,0.532-0.044,0.704-0.134c0.17-0.088,0.324-0.241,0.461-0.461
				C378.806,727.415,378.963,727.092,379.14,726.669z"/>
		</g>
		<g>
			<g>
				<path d="M416.703,716.027h0.618v-0.778c0-0.814,0.1-1.457,0.307-1.938c0.204-0.479,0.556-0.826,1.047-1.045
					c0.49-0.217,1.163-0.326,2.017-0.326c1.52,0,2.272,0.367,2.272,1.114c0,0.238-0.079,0.444-0.24,0.615
					c-0.154,0.169-0.343,0.256-0.558,0.256c-0.1,0-0.278-0.019-0.527-0.06c-0.237-0.033-0.452-0.056-0.623-0.056
					c-0.468,0-0.767,0.141-0.905,0.415c-0.127,0.275-0.195,0.669-0.195,1.185v0.617h0.633c0.991,0,1.481,0.297,1.481,0.896
					c0,0.419-0.127,0.69-0.393,0.805c-0.262,0.114-0.624,0.171-1.089,0.171h-0.633v6.871c0,0.511-0.12,0.9-0.369,1.168
					c-0.241,0.273-0.554,0.406-0.942,0.406c-0.367,0-0.671-0.134-0.918-0.406c-0.244-0.268-0.364-0.657-0.364-1.168v-6.871h-0.714
					c-0.389,0-0.683-0.084-0.894-0.262c-0.209-0.171-0.314-0.399-0.314-0.678C415.399,716.335,415.834,716.027,416.703,716.027"/>
				<path d="M425.192,722.601v2.168c0,0.523-0.133,0.919-0.374,1.18c-0.247,0.266-0.559,0.395-0.938,0.395
					c-0.382,0-0.688-0.131-0.927-0.4c-0.236-0.264-0.36-0.656-0.36-1.174v-7.223c0-1.166,0.42-1.749,1.261-1.749
					c0.434,0,0.743,0.135,0.934,0.408c0.189,0.273,0.295,0.674,0.317,1.208c0.308-0.534,0.624-0.935,0.948-1.208
					c0.332-0.273,0.763-0.408,1.31-0.408c0.549,0,1.072,0.135,1.585,0.408c0.516,0.273,0.771,0.637,0.771,1.085
					c0,0.315-0.11,0.58-0.326,0.781c-0.22,0.209-0.454,0.312-0.706,0.312c-0.1,0-0.331-0.063-0.692-0.18
					c-0.365-0.113-0.688-0.173-0.963-0.173c-0.38,0-0.692,0.103-0.932,0.298c-0.242,0.205-0.431,0.497-0.564,0.887
					c-0.129,0.395-0.219,0.865-0.273,1.404C425.215,721.162,425.192,721.823,425.192,722.601"/>
				<path d="M437.113,721.709h-5.074c0.009,0.588,0.124,1.11,0.354,1.559c0.235,0.446,0.54,0.786,0.925,1.017
					c0.385,0.227,0.804,0.34,1.268,0.34c0.311,0,0.593-0.033,0.85-0.111c0.254-0.069,0.505-0.186,0.745-0.341
					c0.242-0.152,0.46-0.318,0.664-0.5c0.202-0.175,0.467-0.416,0.79-0.719c0.135-0.113,0.324-0.174,0.568-0.174
					c0.269,0,0.481,0.074,0.649,0.222c0.166,0.147,0.243,0.351,0.243,0.617c0,0.235-0.089,0.508-0.268,0.819
					c-0.188,0.317-0.463,0.616-0.836,0.906c-0.374,0.285-0.839,0.527-1.398,0.714c-0.559,0.19-1.206,0.286-1.932,0.286
					c-1.671,0-2.964-0.473-3.887-1.422c-0.924-0.952-1.392-2.242-1.392-3.868c0-0.767,0.117-1.478,0.348-2.135
					c0.225-0.658,0.558-1.216,0.999-1.688c0.436-0.471,0.97-0.828,1.612-1.078c0.638-0.249,1.347-0.374,2.128-0.374
					c1.011,0,1.881,0.214,2.606,0.646c0.724,0.423,1.273,0.977,1.629,1.654c0.361,0.681,0.542,1.368,0.542,2.074
					c0,0.648-0.188,1.07-0.561,1.266C438.315,721.612,437.791,721.709,437.113,721.709 M432.039,720.234h4.701
					c-0.063-0.885-0.298-1.55-0.714-1.986c-0.418-0.442-0.959-0.66-1.641-0.66c-0.645,0-1.177,0.22-1.592,0.669
					C432.38,718.703,432.126,719.361,432.039,720.234"/>
				<path d="M447.9,721.709h-5.073c0.006,0.588,0.125,1.11,0.354,1.559c0.231,0.446,0.539,0.786,0.921,1.017
					c0.383,0.227,0.806,0.34,1.271,0.34c0.308,0,0.593-0.033,0.845-0.111c0.259-0.069,0.506-0.186,0.75-0.341
					c0.242-0.152,0.46-0.318,0.664-0.5c0.199-0.175,0.464-0.416,0.788-0.719c0.135-0.113,0.326-0.174,0.568-0.174
					c0.268,0,0.483,0.074,0.65,0.222c0.165,0.147,0.24,0.351,0.24,0.617c0,0.235-0.087,0.508-0.273,0.819
					c-0.177,0.317-0.455,0.616-0.83,0.906c-0.37,0.285-0.84,0.527-1.395,0.714c-0.558,0.19-1.208,0.286-1.935,0.286
					c-1.667,0-2.959-0.473-3.887-1.422c-0.924-0.952-1.389-2.242-1.389-3.868c0-0.767,0.116-1.478,0.348-2.135
					c0.227-0.658,0.559-1.216,0.996-1.688c0.436-0.471,0.973-0.828,1.614-1.078c0.638-0.249,1.351-0.374,2.129-0.374
					c1.009,0,1.878,0.214,2.613,0.646c0.72,0.423,1.266,0.977,1.621,1.654c0.359,0.681,0.545,1.368,0.545,2.074
					c0,0.648-0.191,1.07-0.561,1.266C449.1,721.612,448.576,721.709,447.9,721.709 M442.827,720.234h4.701
					c-0.063-0.885-0.304-1.55-0.715-1.986c-0.421-0.442-0.962-0.66-1.643-0.66c-0.645,0-1.176,0.22-1.593,0.669
					C443.165,718.703,442.911,719.361,442.827,720.234"/>
				<path d="M453.58,717.256v0.311c0.486-0.601,0.994-1.042,1.524-1.324c0.519-0.284,1.118-0.427,1.782-0.427
					c0.795,0,1.535,0.208,2.207,0.617c0.671,0.414,1.198,1.016,1.589,1.807c0.39,0.795,0.586,1.729,0.586,2.813
					c0,0.796-0.112,1.531-0.336,2.201c-0.224,0.668-0.537,1.227-0.929,1.68c-0.393,0.45-0.855,0.802-1.39,1.046
					c-0.542,0.241-1.111,0.363-1.728,0.363c-0.738,0-1.364-0.148-1.865-0.447c-0.503-0.292-0.982-0.733-1.441-1.306v3.893
					c0,1.136-0.416,1.71-1.244,1.71c-0.49,0-0.809-0.146-0.972-0.44c-0.151-0.299-0.233-0.724-0.233-1.291v-11.193
					c0-0.495,0.106-0.859,0.32-1.107c0.215-0.239,0.512-0.364,0.885-0.364c0.369,0,0.666,0.125,0.896,0.374
					C453.467,716.425,453.58,716.782,453.58,717.256 M458.664,721.024c0-0.685-0.107-1.273-0.315-1.763
					c-0.209-0.492-0.499-0.867-0.866-1.128c-0.367-0.263-0.782-0.397-1.232-0.397c-0.714,0-1.318,0.284-1.809,0.844
					c-0.492,0.566-0.739,1.396-0.739,2.493c0,1.026,0.244,1.833,0.735,2.406c0.487,0.573,1.086,0.858,1.813,0.858
					c0.429,0,0.83-0.126,1.197-0.372c0.371-0.253,0.665-0.627,0.884-1.127C458.553,722.338,458.664,721.732,458.664,721.024"/>
				<path d="M463.88,714.59c-0.362,0-0.669-0.114-0.923-0.335c-0.26-0.223-0.388-0.532-0.388-0.937c0-0.368,0.131-0.67,0.396-0.91
					c0.262-0.234,0.566-0.356,0.914-0.356c0.34,0,0.636,0.107,0.894,0.319c0.26,0.219,0.391,0.534,0.391,0.946
					c0,0.399-0.127,0.711-0.378,0.936C464.532,714.476,464.231,714.59,463.88,714.59 M465.164,717.269v7.502
					c0,0.516-0.124,0.908-0.37,1.172c-0.25,0.27-0.561,0.4-0.941,0.4c-0.381,0-0.685-0.134-0.928-0.406
					c-0.233-0.276-0.355-0.665-0.355-1.166v-7.428c0-0.51,0.122-0.895,0.355-1.154c0.243-0.265,0.547-0.392,0.928-0.392
					c0.381,0,0.691,0.127,0.941,0.392C465.04,716.449,465.164,716.811,465.164,717.269"/>
				<path d="M473.523,725.16l-2.284-3.766l-1.408,1.328v2.065c0,0.499-0.133,0.882-0.397,1.149
					c-0.257,0.273-0.566,0.406-0.906,0.406c-0.398,0-0.715-0.131-0.94-0.4c-0.227-0.264-0.344-0.656-0.344-1.174v-11.063
					c0-0.573,0.114-1.011,0.331-1.313c0.223-0.305,0.545-0.452,0.953-0.452c0.399,0,0.713,0.137,0.949,0.411
					c0.234,0.271,0.354,0.674,0.354,1.202v6.293l2.916-3.063c0.362-0.376,0.633-0.641,0.827-0.778
					c0.189-0.139,0.419-0.208,0.689-0.208c0.326,0,0.594,0.104,0.815,0.309c0.211,0.206,0.32,0.466,0.32,0.773
					c0,0.379-0.354,0.889-1.055,1.521l-1.377,1.263l2.659,4.183c0.193,0.313,0.339,0.544,0.424,0.706
					c0.084,0.159,0.13,0.319,0.13,0.462c0,0.413-0.114,0.734-0.341,0.976c-0.225,0.236-0.523,0.354-0.886,0.354
					c-0.316,0-0.564-0.081-0.733-0.256C474.051,725.915,473.813,725.604,473.523,725.16"/>
				<path d="M479.159,726.343c-0.392,0-0.728-0.126-1.014-0.381c-0.284-0.249-0.429-0.606-0.429-1.065
					c0-0.386,0.138-0.719,0.41-0.995c0.274-0.279,0.607-0.419,1.008-0.419c0.397,0,0.735,0.14,1.022,0.412
					c0.279,0.275,0.422,0.612,0.422,1.002c0,0.452-0.143,0.808-0.422,1.06C479.87,726.217,479.538,726.343,479.159,726.343"/>
				<path d="M492.057,723.133c0,0.32-0.097,0.668-0.291,1.034c-0.191,0.37-0.488,0.718-0.886,1.05
					c-0.395,0.332-0.892,0.602-1.495,0.804c-0.601,0.202-1.28,0.307-2.03,0.307c-1.606,0-2.858-0.47-3.758-1.401
					c-0.896-0.936-1.346-2.19-1.346-3.76c0-1.067,0.204-2.006,0.619-2.824c0.407-0.815,1.004-1.447,1.781-1.894
					c0.779-0.448,1.716-0.67,2.794-0.67c0.674,0,1.288,0.098,1.852,0.295c0.561,0.195,1.032,0.451,1.425,0.759
					c0.387,0.315,0.685,0.644,0.89,0.992c0.207,0.352,0.308,0.681,0.308,0.987c0,0.308-0.113,0.571-0.343,0.787
					c-0.235,0.215-0.516,0.324-0.839,0.324c-0.219,0-0.398-0.057-0.541-0.166c-0.144-0.112-0.305-0.29-0.479-0.542
					c-0.317-0.479-0.646-0.842-0.996-1.079c-0.343-0.243-0.78-0.362-1.314-0.362c-0.762,0-1.384,0.298-1.854,0.898
					c-0.468,0.596-0.703,1.42-0.703,2.454c0,0.488,0.063,0.939,0.183,1.348c0.117,0.407,0.291,0.756,0.52,1.044
					c0.23,0.287,0.504,0.505,0.826,0.654c0.324,0.153,0.681,0.226,1.064,0.226c0.521,0,0.967-0.12,1.337-0.36
					c0.376-0.241,0.702-0.607,0.986-1.102c0.158-0.291,0.327-0.518,0.509-0.684c0.183-0.163,0.409-0.249,0.676-0.249
					c0.316,0,0.58,0.123,0.786,0.362C491.951,722.604,492.057,722.863,492.057,723.133"/>
				<path d="M503.248,721.073c0,0.77-0.122,1.484-0.355,2.139c-0.247,0.652-0.592,1.213-1.05,1.679
					c-0.455,0.469-1.002,0.828-1.632,1.08c-0.64,0.247-1.35,0.375-2.139,0.375c-0.785,0-1.493-0.128-2.121-0.383
					c-0.623-0.249-1.171-0.614-1.626-1.082c-0.461-0.477-0.809-1.034-1.052-1.677c-0.229-0.643-0.351-1.354-0.351-2.131
					c0-0.786,0.124-1.506,0.358-2.158c0.242-0.654,0.589-1.212,1.039-1.673c0.451-0.462,0.993-0.817,1.631-1.07
					c0.643-0.249,1.35-0.374,2.121-0.374c0.784,0,1.498,0.125,2.139,0.382c0.638,0.251,1.183,0.614,1.644,1.079
					c0.458,0.475,0.803,1.029,1.04,1.672C503.128,719.582,503.248,720.291,503.248,721.073 M500.644,721.073
					c0-1.059-0.234-1.881-0.698-2.469c-0.463-0.596-1.09-0.888-1.874-0.888c-0.508,0-0.955,0.132-1.343,0.394
					c-0.387,0.262-0.681,0.649-0.89,1.164c-0.209,0.514-0.315,1.113-0.315,1.799c0,0.679,0.103,1.268,0.31,1.773
					c0.208,0.511,0.502,0.897,0.886,1.166c0.386,0.267,0.835,0.404,1.353,0.404c0.784,0,1.411-0.296,1.874-0.892
					C500.41,722.934,500.644,722.114,500.644,721.073"/>
				<path d="M513.14,721.263v3.446c0,0.547-0.12,0.951-0.369,1.227c-0.25,0.273-0.571,0.408-0.978,0.408
					c-0.393,0-0.714-0.136-0.951-0.408c-0.247-0.276-0.372-0.681-0.372-1.227v-4.131c0-0.653-0.02-1.162-0.063-1.524
					c-0.046-0.354-0.168-0.655-0.362-0.883c-0.196-0.235-0.509-0.352-0.931-0.352c-0.851,0-1.407,0.29-1.677,0.881
					c-0.268,0.576-0.406,1.413-0.406,2.507v3.502c0,0.538-0.122,0.946-0.361,1.224c-0.249,0.273-0.567,0.412-0.965,0.412
					c-0.396,0-0.717-0.139-0.967-0.412c-0.252-0.277-0.376-0.686-0.376-1.224v-7.419c0-0.489,0.111-0.86,0.335-1.111
					c0.229-0.257,0.526-0.382,0.89-0.382c0.356,0,0.651,0.123,0.892,0.355c0.236,0.238,0.354,0.566,0.354,0.984v0.245
					c0.453-0.535,0.935-0.932,1.444-1.181c0.517-0.26,1.082-0.386,1.713-0.386c0.651,0,1.211,0.131,1.678,0.39
					c0.47,0.261,0.853,0.655,1.16,1.177c0.439-0.528,0.909-0.923,1.41-1.181c0.5-0.257,1.053-0.386,1.662-0.386
					c0.706,0,1.321,0.143,1.834,0.419c0.51,0.278,0.893,0.68,1.148,1.195c0.221,0.473,0.33,1.21,0.33,2.217v5.063
					c0,0.547-0.122,0.951-0.367,1.227c-0.246,0.273-0.575,0.408-0.979,0.408c-0.395,0-0.714-0.139-0.965-0.412
					c-0.25-0.277-0.376-0.686-0.376-1.224v-4.361c0-0.559-0.023-1.003-0.069-1.338c-0.047-0.337-0.177-0.62-0.383-0.847
					c-0.212-0.228-0.53-0.344-0.953-0.344c-0.342,0-0.666,0.107-0.974,0.308c-0.307,0.198-0.547,0.477-0.721,0.813
					C513.238,719.378,513.14,720.153,513.14,721.263"/>
			</g>
			<g>
				<path d="M392.435,720.445c-0.002-0.005-0.002-0.01-0.002-0.018C392.433,720.435,392.433,720.44,392.435,720.445z"/>
				<path d="M392.566,721.274c0.002,0,0.002,0,0.003,0c-0.05-0.236-0.088-0.471-0.119-0.702
					C392.48,720.805,392.519,721.041,392.566,721.274z"/>
				<path d="M393.424,723.68c-0.006-0.01-0.011-0.021-0.017-0.033C393.413,723.659,393.418,723.67,393.424,723.68z"/>
				<path d="M393.342,723.52c-0.022-0.044-0.044-0.09-0.065-0.134C393.298,723.433,393.32,723.476,393.342,723.52z"/>
				<path d="M392.807,722.201c0.127,0.4,0.28,0.788,0.457,1.158c-0.18-0.378-0.33-0.767-0.454-1.158
					C392.809,722.201,392.808,722.201,392.807,722.201z"/>
				<path d="M402.473,710.508c0.501,0,0.871,0.04,1.295,0.111l0.12-0.763c0,0-1.171-0.36-2.71-0.234l-0.121-0.415
					c0.478-0.101,0.838-0.526,0.838-1.034c0-0.582-0.474-1.054-1.057-1.054s-1.056,0.472-1.056,1.054
					c0,0.508,0.358,0.934,0.836,1.034l0.134,0.463c-1.634,0.225-2.935,0.862-2.935,0.862l0.23,0.705
					c0.989-0.329,1.846-0.529,2.624-0.613C401.432,710.544,402.005,710.508,402.473,710.508z"/>
				<path d="M393.405,714.367l0.006-0.008c0.039-0.05,0.076-0.097,0.113-0.143l-0.313-0.226l-0.488-0.356
					c-0.027,0.038-0.795,0.744-1.401,2.048c-0.025-0.041-0.056-0.081-0.09-0.119c-0.182-0.198-0.436-0.3-0.758-0.294
					c-0.004,0-0.009,0-0.015,0c-0.2,0-0.337-0.066-0.427-0.147c0.089-0.113,0.143-0.256,0.143-0.413c0-0.368-0.3-0.669-0.669-0.669
					c-0.369,0-0.669,0.301-0.669,0.669c0,0.37,0.3,0.669,0.669,0.669c0.058,0,0.113-0.01,0.167-0.021
					c0.164,0.183,0.425,0.342,0.808,0.334c0.197-0.002,0.341,0.049,0.438,0.155c0.111,0.121,0.148,0.296,0.16,0.428
					c-0.001,0.002-0.001,0.005-0.003,0.005c-0.435,1.19-0.311,2.67-0.311,2.67l1.057,0.042c0.022-0.539,0.099-1.482,0.372-2.23
					C392.719,715.311,393.378,714.405,393.405,714.367z"/>
				<path d="M411.672,711.392c-0.368,0-0.669,0.299-0.669,0.669c0,0.058,0.009,0.112,0.023,0.165
					c-0.184,0.166-0.343,0.428-0.337,0.81c0.003,0.197-0.048,0.34-0.154,0.437c-0.085,0.075-0.191,0.115-0.296,0.141
					c-0.787-1.103-1.756-1.775-1.756-1.775l-0.759,0.813c0.573,0.521,1.159,1.175,1.729,1.99c0.394,0.563,0.799,1.29,1.136,2.015
					l1.024-0.486c0,0-0.468-1.155-1.126-2.191c0.114-0.04,0.229-0.103,0.331-0.192c0.2-0.181,0.299-0.436,0.293-0.758
					c-0.002-0.208,0.067-0.349,0.149-0.441c0.114,0.087,0.257,0.143,0.412,0.143c0.371,0,0.67-0.3,0.67-0.669
					C412.342,711.691,412.043,711.392,411.672,711.392z"/>
				<path d="M409.015,720.594c-1.409,0.687-3.728,1.594-6.781,2.02c-1.198,0.166-2.359,0.227-3.428,0.227
					c-1.391,0-2.62-0.103-3.563-0.223c-1.076-0.136-1.917-0.302-2.432-0.418c0.124,0.392,0.273,0.78,0.454,1.158
					c0.003,0.01,0.008,0.021,0.013,0.027c0.021,0.044,0.043,0.09,0.065,0.134c0.021,0.044,0.043,0.087,0.065,0.127
					c0.006,0.012,0.011,0.023,0.017,0.033c0.303,0.57,0.667,1.095,1.081,1.549c1.44,1.575,2.907,1.824,2.921,1.826l0.023,0.003
					l0.022,0.008c0.013,0.005,1.314,0.425,3.292,0.425c1.945,0,3.854-0.393,5.674-1.167c1.348-0.689,2.622-1.736,3.254-2.67
					c0.488-0.723,0.841-1.493,1.05-2.294c0.111-0.426,0.199-1.107,0.147-1.825C410.49,719.801,409.863,720.181,409.015,720.594z"/>
				<path d="M393.857,714.701c-0.041,0.06-0.652,0.925-1.135,2.253c-0.362,0.995-0.346,2.443-0.346,2.46v0.003
					c0,0.34,0.019,0.677,0.057,1.011c0,0.008,0,0.013,0.002,0.018c0.004,0.043,0.011,0.084,0.015,0.127
					c0.03,0.231,0.069,0.466,0.119,0.702c0.7,0.178,4.878,1.152,9.548,0.502c2.927-0.407,5.149-1.273,6.499-1.927
					c1.121-0.544,1.842-1.036,2.12-1.238c-0.277-1.028-1.042-2.641-1.743-3.646c-2.005-2.865-4.167-3.601-5.277-3.783
					c-0.424-0.069-0.763-0.109-1.243-0.109c-0.447,0-1.002,0.036-1.743,0.114c-0.743,0.077-1.572,0.273-2.532,0.596
					c-1.348,0.451-2.567,1.159-3.527,2.048l-0.033,0.03C394.495,713.991,394.199,714.266,393.857,714.701z M406.127,714.034
					c0.961,0,1.743,0.781,1.743,1.743c0,0.962-0.782,1.744-1.743,1.744c-0.962,0-1.742-0.782-1.742-1.744
					C404.385,714.815,405.165,714.034,406.127,714.034z M397.885,713.964c1.557,0,2.817,1.262,2.817,2.817
					c0,1.556-1.26,2.815-2.817,2.815c-1.555,0-2.816-1.259-2.816-2.815C395.069,715.226,396.33,713.964,397.885,713.964z"/>
			</g>
		</g>
	</g>
	<g>
		<g id="XMLID_24_">
			<g>
				<path d="M655.688,522.683v28.805c0,2.347-1.912,4.248-4.249,4.248H150.286c-2.347,0-4.249-1.901-4.249-4.248v-28.805
					c0-0.011,0-0.011,0-0.021V185.606c0-2.347,1.901-4.249,4.249-4.249h136.122v-58.119c0-7.106,5.789-12.894,12.884-12.894h206.488
					c7.106,0,12.884,5.788,12.884,12.894v58.119h132.776c2.347,0,4.249,1.901,4.249,4.249v337.055
					C655.688,522.661,655.688,522.672,655.688,522.683z M647.191,547.239V526.91H154.535v20.329H647.191z M647.191,518.413V189.855
					H518.663v176.642c0,8.03-6.532,14.562-14.562,14.562H300.98c-8.03,0-14.572-6.532-14.572-14.562V189.855H154.535v328.558
					H647.191z M510.166,366.497v-0.595H294.905v0.595c0,3.346,2.73,6.065,6.075,6.065h203.121
					C507.447,372.562,510.166,369.843,510.166,366.497z M510.166,357.405v-95.878H294.905v95.878h72.586v-16.272
					c0-6.022,4.896-10.929,10.919-10.929h48.252c6.022,0,10.929,4.907,10.929,10.929v16.272H510.166z M510.166,253.03V130.525
					H294.905V253.03H510.166z M295.096,122.027h214.879c-0.52-1.827-2.199-3.186-4.195-3.186H299.292
					C297.295,118.841,295.627,120.201,295.096,122.027z M429.094,357.405v-16.272c0-1.338-1.094-2.432-2.432-2.432h-48.252
					c-1.338,0-2.422,1.094-2.422,2.432v16.272H429.094z"/>
				<rect x="154.535" y="526.91" style="fill:#C29F6C;" width="492.656" height="20.329"/>
				<path style="fill:#E1BD80;" d="M647.191,189.855v328.558H154.535V189.855h131.873v176.642c0,8.03,6.543,14.562,14.572,14.562
					h203.121c8.03,0,14.562-6.532,14.562-14.562V189.855H647.191z M635.146,279.137v-72.32c0-2.337-1.901-4.249-4.249-4.249h-99.84
					c-2.347,0-4.248,1.912-4.248,4.249v72.32c0,2.347,1.901,4.249,4.248,4.249h99.84
					C633.245,283.386,635.146,281.484,635.146,279.137z M625.587,490.691v-95.092c0-8.635-7.021-15.656-15.656-15.656h-66.415
					c-8.624,0-15.645,7.021-15.645,15.656v95.092c0,8.635,7.021,15.645,15.645,15.645h66.415
					C618.566,506.336,625.587,499.326,625.587,490.691z M602.072,343.746v-23.08c0-13.797-11.227-25.024-25.034-25.024h-1.816
					c-13.808,0-25.034,11.227-25.034,25.024v23.08c0,13.797,11.227,25.024,25.034,25.024h1.816
					C590.845,368.77,602.072,357.543,602.072,343.746z M515.657,491.467v-81.253c0-2.337-1.901-4.249-4.248-4.249
					s-4.249,1.912-4.249,4.249v81.253c0,2.347,1.901,4.249,4.249,4.249S515.657,493.814,515.657,491.467z M500.256,491.467v-81.253
					c0-2.337-1.901-4.249-4.249-4.249c-2.347,0-4.249,1.912-4.249,4.249v81.253c0,2.347,1.901,4.249,4.249,4.249
					C498.355,495.715,500.256,493.814,500.256,491.467z M481.637,501.514V398.956c0-1.763-1.094-3.346-2.751-3.972
					c-24.089-9.102-50.61-9.102-74.699,0c-1.646,0.627-2.74,2.209-2.74,3.972v5.311c-1.593-0.106-3.186-0.117-4.78-0.032v-5.279
					c0-1.763-1.094-3.346-2.74-3.972c-24.089-9.102-50.61-9.102-74.699,0c-1.657,0.627-2.751,2.209-2.751,3.972v102.559
					c0,1.391,0.69,2.698,1.837,3.494c1.147,0.786,2.613,0.967,3.919,0.478c22.145-8.37,46.542-8.37,68.688,0
					c0.489,0.181,0.998,0.276,1.498,0.276c0.85,0,1.699-0.266,2.422-0.754c1.147-0.797,1.827-2.103,1.827-3.494v-12.087
					c1.593-0.106,3.186-0.096,4.78,0.032v12.055c0,1.391,0.68,2.698,1.827,3.494c1.147,0.786,2.613,0.967,3.919,0.478
					c22.145-8.37,46.542-8.37,68.688,0c0.488,0.181,0.998,0.276,1.498,0.276c0.86,0,1.699-0.266,2.422-0.754
					C480.947,504.212,481.637,502.906,481.637,501.514z M281.809,304.448v-93.382c0-2.337-1.901-4.249-4.249-4.249h-7.785v-3.186
					c0-2.337-1.901-4.249-4.249-4.249c-2.347,0-4.248,1.912-4.248,4.249v3.186h-9.134v-3.186c0-2.337-1.901-4.249-4.249-4.249
					c-2.347,0-4.249,1.912-4.249,4.249v3.186h-9.134v-3.186c0-2.337-1.901-4.249-4.248-4.249c-2.347,0-4.249,1.912-4.249,4.249
					v3.186h-9.134v-3.186c0-2.337-1.901-4.249-4.249-4.249c-2.347,0-4.248,1.912-4.248,4.249v3.186h-9.134v-3.186
					c0-2.337-1.901-4.249-4.249-4.249c-2.347,0-4.248,1.912-4.248,4.249v3.186h-9.134v-3.186c0-2.337-1.901-4.249-4.249-4.249
					s-4.249,1.912-4.249,4.249v3.186h-7.435c-2.347,0-4.249,1.912-4.249,4.249v93.382c0,2.347,1.901,4.249,4.249,4.249H277.56
					C279.908,308.696,281.809,306.795,281.809,304.448z M273.492,503.001V397.469c0-2.337-1.901-4.249-4.249-4.249h-4.588
					l0.297-1.115c0.595-2.262-0.754-4.588-3.027-5.194c-2.262-0.595-4.588,0.754-5.194,3.027l-0.871,3.282h-6.776l0.297-1.115
					c0.605-2.262-0.754-4.588-3.016-5.194c-2.273-0.595-4.599,0.754-5.194,3.027l-0.871,3.282h-6.776l0.287-1.115
					c0.605-2.262-0.743-4.588-3.016-5.194c-2.262-0.595-4.588,0.754-5.194,3.027l-0.871,3.282h-6.776l0.297-1.115
					c0.595-2.262-0.754-4.588-3.016-5.194c-2.273-0.595-4.599,0.754-5.204,3.027l-0.86,3.282h-10.027
					c-2.347,0-4.248,1.912-4.248,4.249v105.533c0,2.347,1.901,4.249,4.248,4.249h70.1
					C271.591,507.25,273.492,505.349,273.492,503.001z M267.651,375.695v-55.23c0-2.337-1.901-4.249-4.249-4.249h-88.687
					c-2.347,0-4.249,1.912-4.249,4.249v55.23c0,2.347,1.901,4.249,4.249,4.249h88.687
					C265.75,379.944,267.651,378.042,267.651,375.695z"/>
				<path d="M635.146,206.817v72.32c0,2.347-1.901,4.249-4.249,4.249h-99.84c-2.347,0-4.248-1.901-4.248-4.249v-72.32
					c0-2.337,1.901-4.249,4.248-4.249h99.84C633.245,202.568,635.146,204.48,635.146,206.817z M626.649,274.889v-47.891h-91.343
					v47.891H626.649z M626.649,218.5v-7.435h-72.225v7.435H626.649z M545.928,218.5v-7.435h-10.621v7.435H545.928z"/>
				<path style="fill:#487E9C;" d="M626.649,226.997v47.891h-91.343v-47.891H626.649z M622.401,236.557
					c0-2.337-1.901-4.249-4.248-4.249h-13.808c-2.347,0-4.249,1.912-4.249,4.249c0,2.347,1.901,4.249,4.249,4.249h13.808
					C620.5,240.805,622.401,238.904,622.401,236.557z M600.096,251.426c0-10.536-8.582-19.118-19.118-19.118
					c-10.547,0-19.118,8.582-19.118,19.118c0,10.547,8.571,19.118,19.118,19.118C591.514,270.545,600.096,261.973,600.096,251.426z
					 M558.939,263.11c0-2.485-2.029-4.514-4.514-4.514c-2.496,0-4.514,2.029-4.514,4.514c0,2.496,2.018,4.514,4.514,4.514
					C556.91,267.624,558.939,265.606,558.939,263.11z"/>
				<rect x="554.425" y="211.066" style="fill:#487E9C;" width="72.225" height="7.435"/>
				<path d="M625.587,395.599v95.092c0,8.635-7.021,15.645-15.656,15.645h-66.415c-8.624,0-15.645-7.01-15.645-15.645v-95.092
					c0-8.635,7.021-15.656,15.645-15.656h66.415C618.566,379.944,625.587,386.964,625.587,395.599z M617.09,490.691v-95.092
					c0-3.951-3.208-7.159-7.159-7.159h-66.415c-3.94,0-7.148,3.208-7.148,7.159v95.092c0,3.94,3.208,7.148,7.148,7.148h66.415
					C613.883,497.839,617.09,494.632,617.09,490.691z"/>
				<path d="M618.152,232.308c2.347,0,4.248,1.912,4.248,4.249c0,2.347-1.901,4.249-4.248,4.249h-13.808
					c-2.347,0-4.249-1.901-4.249-4.249c0-2.337,1.901-4.249,4.249-4.249H618.152z"/>
				<path d="M611.779,398v84.322c0,2.347-1.901,4.249-4.248,4.249h-61.603c-2.347,0-4.248-1.901-4.248-4.249V398
					c0-2.337,1.901-4.249,4.248-4.249h61.603C609.878,393.751,611.779,395.663,611.779,398z M603.282,478.073v-75.825h-53.106
					v75.825H603.282z"/>
				<rect x="550.176" y="402.248" style="fill:#E4E4E4;" width="53.106" height="75.825"/>
				<path d="M602.072,320.666v23.08c0,13.797-11.227,25.024-25.034,25.024h-1.816c-13.808,0-25.034-11.227-25.034-25.024v-23.08
					c0-13.797,11.227-25.024,25.034-25.024h1.816C590.845,295.643,602.072,306.869,602.072,320.666z M593.575,343.746v-12.395
					h-34.891v12.395c0,9.113,7.414,16.527,16.537,16.527h1.816C586.161,360.273,593.575,352.859,593.575,343.746z M593.575,322.854
					v-2.188c0-7.966-5.672-14.636-13.202-16.187v18.375H593.575z M571.875,322.854v-18.375c-7.52,1.551-13.192,8.221-13.192,16.187
					v2.188H571.875z"/>
				<path d="M580.978,232.308c10.536,0,19.118,8.582,19.118,19.118c0,10.547-8.582,19.118-19.118,19.118
					c-10.547,0-19.118-8.571-19.118-19.118C561.86,240.89,570.431,232.308,580.978,232.308z M591.599,251.426
					c0-5.852-4.769-10.621-10.621-10.621c-5.863,0-10.621,4.769-10.621,10.621c0,5.863,4.758,10.621,10.621,10.621
					C586.83,262.048,591.599,257.289,591.599,251.426z"/>
				
					<ellipse transform="matrix(0.2287 -0.9735 0.9735 0.2287 203.3383 759.5)" style="fill:#7F7F7F;" cx="580.978" cy="251.426" rx="10.621" ry="10.621"/>
				<circle cx="576.729" cy="492.529" r="4.514"/>
				<path style="fill:#363636;" d="M609.931,497.839h-66.415c-3.94,0-7.148-3.208-7.148-7.148v-95.092
					c0-3.951,3.208-7.159,7.148-7.159h66.415c3.951,0,7.159,3.208,7.159,7.159v95.092
					C617.09,494.632,613.883,497.839,609.931,497.839z M545.928,486.57h61.603c2.347,0,4.248-1.901,4.248-4.249V398
					c0-2.337-1.901-4.249-4.248-4.249h-61.603c-2.347,0-4.248,1.912-4.248,4.249v84.322
					C541.679,484.669,543.58,486.57,545.928,486.57z M576.729,497.043c2.485,0,4.514-2.018,4.514-4.514
					c0-2.485-2.029-4.514-4.514-4.514c-2.496,0-4.514,2.029-4.514,4.514C572.215,495.025,574.233,497.043,576.729,497.043z"/>
				<path d="M554.425,258.596c2.485,0,4.514,2.029,4.514,4.514c0,2.496-2.029,4.514-4.514,4.514c-2.496,0-4.514-2.018-4.514-4.514
					C549.911,260.624,551.929,258.596,554.425,258.596z"/>
				<rect x="535.306" y="211.066" style="fill:#487E9C;" width="10.621" height="7.435"/>
				<path d="M515.657,410.214v81.253c0,2.347-1.901,4.249-4.248,4.249s-4.249-1.901-4.249-4.249v-81.253
					c0-2.337,1.901-4.249,4.249-4.249S515.657,407.877,515.657,410.214z"/>
				<path style="fill:#979797;" d="M510.166,365.902v0.595c0,3.346-2.719,6.065-6.065,6.065H300.98
					c-3.346,0-6.075-2.719-6.075-6.065v-0.595H510.166z"/>
				<path style="fill:#B0B0B0;" d="M510.166,261.527v95.878h-72.575v-16.272c0-6.022-4.907-10.929-10.929-10.929h-48.252
					c-6.022,0-10.919,4.907-10.919,10.929v16.272h-72.586v-95.878H510.166z M499.693,322.419v-52.108
					c0-2.347-1.901-4.249-4.249-4.249H309.637c-2.347,0-4.249,1.901-4.249,4.249v52.108c0,2.347,1.901,4.249,4.249,4.249h185.808
					C497.792,326.667,499.693,324.766,499.693,322.419z"/>
				<path style="fill:#979797;" d="M510.166,130.525V253.03H294.905V130.525H510.166z M504.855,243.471V140.084
					c0-2.337-1.901-4.248-4.249-4.248H304.464c-2.347,0-4.248,1.912-4.248,4.248v103.387c0,2.347,1.901,4.249,4.248,4.249h196.143
					C502.954,247.719,504.855,245.818,504.855,243.471z"/>
				<path d="M504.855,140.084v103.387c0,2.347-1.901,4.249-4.249,4.249H304.464c-2.347,0-4.248-1.901-4.248-4.249V140.084
					c0-2.337,1.901-4.248,4.248-4.248h196.143C502.954,135.835,504.855,137.747,504.855,140.084z M496.358,239.223v-94.89H308.713
					v94.89H496.358z"/>
				<path d="M500.256,410.214v81.253c0,2.347-1.901,4.249-4.249,4.249c-2.347,0-4.249-1.901-4.249-4.249v-81.253
					c0-2.337,1.901-4.249,4.249-4.249C498.355,405.966,500.256,407.877,500.256,410.214z"/>
				<path d="M499.693,270.311v52.108c0,2.347-1.901,4.249-4.249,4.249H309.637c-2.347,0-4.249-1.901-4.249-4.249v-52.108
					c0-2.347,1.901-4.249,4.249-4.249h185.808C497.792,266.062,499.693,267.964,499.693,270.311z M491.196,318.17v-8.869h-13.638
					v8.869H491.196z M491.196,300.805v-8.879h-4.949v8.879H491.196z M491.196,283.428v-8.869h-13.638v8.869H491.196z
					 M477.75,300.805v-8.879h-8.879v8.879H477.75z M469.062,318.17v-8.869h-15.093v8.869H469.062z M469.062,283.428v-8.869h-15.093
					v8.869H469.062z M460.373,300.805v-8.879h-15.093v8.879H460.373z M445.472,318.17v-8.869h-15.093v8.869H445.472z
					 M445.472,283.428v-8.869h-15.093v8.869H445.472z M436.784,300.805v-8.879h-15.093v8.879H436.784z M421.882,318.17v-8.869
					h-38.683v8.869H421.882z M421.882,283.428v-8.869h-15.093v8.869H421.882z M413.194,300.805v-8.879h-15.093v8.879H413.194z
					 M398.292,283.428v-8.869h-15.093v8.869H398.292z M389.604,300.805v-8.879h-15.093v8.879H389.604z M374.702,318.17v-8.869
					h-15.103v8.869H374.702z M374.702,283.428v-8.869h-15.103v8.869H374.702z M366.014,300.805v-8.879h-15.093v8.879H366.014z
					 M351.102,318.17v-8.869h-15.093v8.869H351.102z M351.102,283.428v-8.869h-15.093v8.869H351.102z M342.424,300.805v-8.879
					h-15.093v8.879H342.424z M327.512,318.17v-8.869h-13.627v8.869H327.512z M327.512,283.428v-8.869h-13.627v8.869H327.512z
					 M318.835,300.805v-8.879h-4.949v8.879H318.835z"/>
				<path style="fill:#66A8DE;" d="M496.358,144.332v94.89H308.713v-94.89H496.358z M471.579,178.14
					c0-2.337-1.901-4.249-4.249-4.249h-12.745c-2.347,0-4.249,1.912-4.249,4.249c0,2.347,1.901,4.249,4.249,4.249h12.745
					C469.678,182.388,471.579,180.487,471.579,178.14z M471.579,193.19c0-2.347-1.901-4.249-4.249-4.249h-31.163
					c-2.337,0-4.249,1.901-4.249,4.249c0,2.347,1.912,4.249,4.249,4.249h31.163C469.678,197.439,471.579,195.537,471.579,193.19z
					 M451.399,223.28c0-2.337-1.901-4.249-4.249-4.249h-86.744c-2.347,0-4.249,1.912-4.249,4.249c0,2.347,1.901,4.249,4.249,4.249
					h86.744C449.497,227.529,451.399,225.627,451.399,223.28z M443.964,178.14c0-2.337-1.901-4.249-4.249-4.249h-40.361
					c-2.347,0-4.249,1.912-4.249,4.249c0,2.347,1.901,4.249,4.249,4.249h40.361C442.063,182.388,443.964,180.487,443.964,178.14z
					 M426.97,193.19c0-2.347-1.901-4.249-4.249-4.249h-63.377c-2.347,0-4.249,1.901-4.249,4.249c0,2.347,1.901,4.249,4.249,4.249
					h63.377C425.068,197.439,426.97,195.537,426.97,193.19z M420.066,158.49c0-2.337-1.901-4.248-4.249-4.248h-27.615
					c-2.347,0-4.249,1.912-4.249,4.248c0,2.347,1.901,4.249,4.249,4.249h27.615C418.165,162.739,420.066,160.838,420.066,158.49z
					 M417.41,208.24c0-2.347-1.901-4.248-4.249-4.248h-19.479c-2.347,0-4.248,1.901-4.248,4.248c0,2.347,1.901,4.249,4.248,4.249
					h19.479C415.509,212.489,417.41,210.588,417.41,208.24z M389.795,178.14c0-2.337-1.901-4.249-4.249-4.249h-41.072
					c-2.347,0-4.249,1.912-4.249,4.249c0,2.347,1.901,4.249,4.249,4.249h41.072C387.894,182.388,389.795,180.487,389.795,178.14z
					 M384.485,208.24c0-2.347-1.901-4.248-4.249-4.248h-62.665c-2.347,0-4.248,1.901-4.248,4.248c0,2.347,1.901,4.249,4.248,4.249
					h62.665C382.583,212.489,384.485,210.588,384.485,208.24z M350.497,223.28c0-2.337-1.901-4.249-4.249-4.249h-28.677
					c-2.347,0-4.248,1.912-4.248,4.249c0,2.347,1.901,4.249,4.248,4.249h28.677C348.595,227.529,350.497,225.627,350.497,223.28z
					 M350.135,193.19c0-2.347-1.901-4.249-4.249-4.249h-28.316c-2.347,0-4.248,1.901-4.248,4.249c0,2.347,1.901,4.249,4.248,4.249
					h28.316C348.234,197.439,350.135,195.537,350.135,193.19z M335.627,178.14c0-2.337-1.901-4.249-4.249-4.249h-13.808
					c-2.347,0-4.248,1.912-4.248,4.249c0,2.347,1.901,4.249,4.248,4.249h13.808C333.726,182.388,335.627,180.487,335.627,178.14z"/>
				<rect x="477.559" y="309.302" style="fill:#E4E4E4;" width="13.638" height="8.869"/>
				<rect x="486.247" y="291.925" style="fill:#E4E4E4;" width="4.95" height="8.879"/>
				<rect x="477.559" y="274.559" style="fill:#E4E4E4;" width="13.638" height="8.869"/>
				<path d="M481.637,398.956v102.559c0,1.391-0.69,2.698-1.838,3.494c-0.722,0.489-1.561,0.754-2.422,0.754
					c-0.499,0-1.009-0.096-1.498-0.276c-22.145-8.37-46.542-8.37-68.688,0c-1.306,0.489-2.772,0.308-3.919-0.478
					c-1.147-0.797-1.827-2.103-1.827-3.494v-12.055c-1.593-0.128-3.186-0.138-4.78-0.032v12.087c0,1.391-0.68,2.698-1.827,3.494
					c-0.722,0.489-1.572,0.754-2.422,0.754c-0.499,0-1.009-0.096-1.498-0.276c-22.145-8.37-46.542-8.37-68.688,0
					c-1.306,0.489-2.772,0.308-3.919-0.478c-1.147-0.797-1.837-2.103-1.837-3.494V398.956c0-1.763,1.094-3.346,2.751-3.972
					c24.089-9.102,50.61-9.102,74.699,0c1.646,0.627,2.74,2.209,2.74,3.972v5.279c1.593-0.085,3.186-0.074,4.78,0.032v-5.311
					c0-1.763,1.094-3.346,2.74-3.972c24.089-9.102,50.61-9.102,74.699,0C480.543,395.61,481.637,397.192,481.637,398.956z
					 M473.14,495.545V401.94c-20.488-7.042-42.719-7.042-63.197,0v3.813c1.041,0.297,2.071,0.637,3.101,1.02
					c2.188,0.828,3.303,3.282,2.475,5.481c-0.648,1.699-2.262,2.751-3.983,2.751c-0.499,0-0.998-0.096-1.498-0.276
					c-0.032-0.021-0.064-0.032-0.096-0.042v10.239c1.041,0.297,2.071,0.637,3.101,1.02c2.188,0.828,3.303,3.282,2.475,5.48
					c-0.839,2.188-3.282,3.303-5.481,2.464c-0.032-0.011-0.064-0.021-0.096-0.032v10.228c1.041,0.308,2.071,0.637,3.101,1.03
					c2.188,0.828,3.303,3.282,2.475,5.47c-0.839,2.199-3.282,3.303-5.481,2.475c-0.032-0.011-0.064-0.021-0.096-0.032v10.228
					c1.041,0.308,2.071,0.637,3.101,1.03c2.188,0.828,3.303,3.282,2.475,5.47c-0.839,2.199-3.282,3.303-5.481,2.475
					c-0.032-0.011-0.064-0.021-0.096-0.032v10.228c1.041,0.297,2.071,0.637,3.101,1.02c2.188,0.828,3.303,3.282,2.475,5.481
					c-0.839,2.199-3.282,3.303-5.481,2.475c-0.032-0.011-0.064-0.021-0.096-0.043v4.185c10.281-3.218,20.935-4.833,31.598-4.833
					C452.195,490.713,462.848,492.327,473.14,495.545z M401.447,480.941v-10.653c-1.593-0.127-3.186-0.138-4.78-0.032v10.653
					C398.26,480.824,399.854,480.845,401.447,480.941z M401.447,461.78v-10.653c-1.593-0.138-3.186-0.149-4.78-0.043v10.653
					C398.26,461.653,399.854,461.674,401.447,461.78z M401.447,442.609v-10.653c-1.593-0.138-3.186-0.149-4.78-0.043v10.664
					C398.26,442.492,399.854,442.503,401.447,442.609z M401.447,423.438v-10.653c-1.593-0.138-3.186-0.138-4.78-0.032v10.653
					C398.26,423.321,399.854,423.331,401.447,423.438z M388.17,495.545v-4.365c-0.202,0.074-0.414,0.138-0.616,0.223
					c-0.499,0.18-1.009,0.276-1.508,0.276c-1.71,0-3.324-1.052-3.972-2.751c-0.828-2.199,0.276-4.652,2.475-5.481
					c1.19-0.446,2.4-0.839,3.622-1.168v-10.271c-0.202,0.074-0.414,0.149-0.616,0.223c-0.499,0.191-1.009,0.276-1.508,0.276
					c-1.71,0-3.324-1.051-3.972-2.751c-0.828-2.188,0.276-4.641,2.475-5.47c1.19-0.457,2.4-0.85,3.622-1.179v-10.26
					c-0.202,0.064-0.414,0.138-0.616,0.212c-0.499,0.191-1.009,0.276-1.508,0.276c-1.71,0-3.324-1.041-3.972-2.751
					c-0.828-2.188,0.276-4.642,2.475-5.47c1.19-0.457,2.4-0.839,3.622-1.179v-10.26c-0.202,0.074-0.414,0.138-0.616,0.212
					c-0.499,0.191-1.009,0.276-1.508,0.276c-1.71,0-3.324-1.041-3.972-2.74c-0.828-2.199,0.276-4.652,2.475-5.48
					c1.19-0.446,2.4-0.839,3.622-1.179v-10.26c-0.202,0.074-0.414,0.138-0.616,0.223c-2.199,0.829-4.652-0.287-5.481-2.475
					c-0.828-2.199,0.276-4.652,2.475-5.481c1.19-0.446,2.4-0.839,3.622-1.168v-3.664c-20.478-7.042-42.708-7.042-63.196,0v93.605
					c10.292-3.218,20.945-4.833,31.598-4.833S377.889,492.327,388.17,495.545z"/>
				<rect x="468.87" y="291.925" style="fill:#E4E4E4;" width="8.879" height="8.879"/>
				<path d="M467.33,173.891c2.347,0,4.249,1.912,4.249,4.249c0,2.347-1.901,4.249-4.249,4.249h-12.745
					c-2.347,0-4.249-1.901-4.249-4.249c0-2.337,1.901-4.249,4.249-4.249H467.33z"/>
				<path d="M467.33,188.941c2.347,0,4.249,1.901,4.249,4.249c0,2.347-1.901,4.249-4.249,4.249h-31.163
					c-2.337,0-4.249-1.901-4.249-4.249c0-2.347,1.912-4.249,4.249-4.249H467.33z"/>
				<path d="M466.449,411.478c2.273,0.563,3.664,2.868,3.112,5.141c-0.478,1.933-2.22,3.229-4.132,3.229
					c-0.329,0-0.669-0.032-1.02-0.117c-12.597-3.112-25.48-3.664-38.3-1.657c-2.315,0.372-4.493-1.221-4.854-3.537
					c-0.361-2.315,1.221-4.493,3.537-4.854C438.738,407.495,452.747,408.1,466.449,411.478z"/>
				<path d="M466.449,426.263c2.273,0.563,3.664,2.868,3.112,5.141c-0.478,1.944-2.22,3.24-4.132,3.24
					c-0.329,0-0.669-0.043-1.02-0.128c-12.597-3.101-25.48-3.664-38.3-1.646c-2.315,0.361-4.493-1.221-4.854-3.548
					c-0.361-2.315,1.221-4.493,3.537-4.854C438.738,422.28,452.747,422.885,466.449,426.263z"/>
				<rect x="453.969" y="309.302" style="fill:#E4E4E4;" width="15.093" height="8.869"/>
				<rect x="453.969" y="274.559" style="fill:#E4E4E4;" width="15.093" height="8.869"/>
				<rect x="445.281" y="291.925" style="fill:#E4E4E4;" width="15.093" height="8.879"/>
				<path d="M447.15,219.031c2.347,0,4.249,1.912,4.249,4.249c0,2.347-1.901,4.249-4.249,4.249h-86.744
					c-2.347,0-4.249-1.901-4.249-4.249c0-2.337,1.901-4.249,4.249-4.249H447.15z"/>
				<rect x="430.379" y="309.302" style="fill:#E4E4E4;" width="15.093" height="8.869"/>
				<rect x="430.379" y="274.559" style="fill:#E4E4E4;" width="15.093" height="8.869"/>
				<path d="M439.715,173.891c2.347,0,4.249,1.912,4.249,4.249c0,2.347-1.901,4.249-4.249,4.249h-40.361
					c-2.347,0-4.249-1.901-4.249-4.249c0-2.337,1.901-4.249,4.249-4.249H439.715z"/>
				<rect x="421.691" y="291.925" style="fill:#E4E4E4;" width="15.093" height="8.879"/>
				<path style="fill:#E4E4E4;" d="M429.094,341.133v16.272h-53.106v-16.272c0-1.338,1.083-2.432,2.422-2.432h48.252
					C428,338.701,429.094,339.795,429.094,341.133z"/>
				<path d="M422.721,188.941c2.347,0,4.249,1.901,4.249,4.249c0,2.347-1.901,4.249-4.249,4.249h-63.377
					c-2.347,0-4.249-1.901-4.249-4.249c0-2.347,1.901-4.249,4.249-4.249H422.721z"/>
				<rect x="383.199" y="309.302" style="fill:#E4E4E4;" width="38.683" height="8.869"/>
				<rect x="406.789" y="274.559" style="fill:#E4E4E4;" width="15.093" height="8.869"/>
				<path d="M415.817,154.242c2.347,0,4.249,1.912,4.249,4.248c0,2.347-1.901,4.249-4.249,4.249h-27.615
					c-2.347,0-4.249-1.901-4.249-4.249c0-2.337,1.901-4.248,4.249-4.248H415.817z"/>
				<path d="M413.162,203.992c2.347,0,4.249,1.901,4.249,4.248c0,2.347-1.901,4.249-4.249,4.249h-19.479
					c-2.347,0-4.248-1.901-4.248-4.249c0-2.347,1.901-4.248,4.248-4.248H413.162z"/>
				<path style="fill:#F1F1F1;" d="M410.039,491.403c2.199,0.828,4.641-0.276,5.481-2.475c0.828-2.199-0.287-4.652-2.475-5.481
					c-1.03-0.382-2.061-0.722-3.101-1.02V472.2c0.032,0.011,0.064,0.021,0.096,0.032c2.199,0.828,4.641-0.276,5.481-2.475
					c0.828-2.188-0.287-4.641-2.475-5.47c-1.03-0.393-2.061-0.722-3.101-1.03v-10.228c0.032,0.011,0.064,0.021,0.096,0.032
					c2.199,0.828,4.641-0.276,5.481-2.475c0.828-2.188-0.287-4.642-2.475-5.47c-1.03-0.393-2.061-0.722-3.101-1.03v-10.228
					c0.032,0.011,0.064,0.021,0.096,0.032c2.199,0.839,4.641-0.276,5.481-2.464c0.828-2.199-0.287-4.652-2.475-5.48
					c-1.03-0.382-2.061-0.722-3.101-1.02v-10.239c0.032,0.011,0.064,0.021,0.096,0.042c0.499,0.181,0.998,0.276,1.498,0.276
					c1.721,0,3.335-1.052,3.983-2.751c0.828-2.199-0.287-4.652-2.475-5.481c-1.03-0.382-2.061-0.722-3.101-1.02v-3.813
					c20.478-7.042,42.708-7.042,63.197,0v93.605c-10.292-3.218-20.945-4.833-31.598-4.833c-10.664,0-21.317,1.614-31.598,4.833
					v-4.185C409.976,491.382,410.007,491.392,410.039,491.403z M469.561,416.619c0.552-2.273-0.839-4.578-3.112-5.141
					c-13.701-3.378-27.711-3.983-41.657-1.795c-2.315,0.361-3.898,2.538-3.537,4.854c0.361,2.315,2.538,3.909,4.854,3.537
					c12.82-2.007,25.703-1.455,38.3,1.657c0.351,0.085,0.69,0.117,1.02,0.117C467.341,419.848,469.083,418.552,469.561,416.619z
					 M469.561,431.404c0.552-2.273-0.839-4.578-3.112-5.141c-13.701-3.378-27.711-3.983-41.657-1.795
					c-2.315,0.361-3.898,2.538-3.537,4.854c0.361,2.326,2.538,3.909,4.854,3.548c12.82-2.018,25.703-1.455,38.3,1.646
					c0.351,0.085,0.69,0.128,1.02,0.128C467.341,434.643,469.083,433.347,469.561,431.404z"/>
				<rect x="398.101" y="291.925" style="fill:#E4E4E4;" width="15.093" height="8.879"/>
				<path style="fill:#E1BD80;" d="M401.447,470.288v10.653c-1.593-0.096-3.186-0.117-4.78-0.032v-10.653
					C398.26,470.15,399.854,470.16,401.447,470.288z"/>
				<path style="fill:#E1BD80;" d="M401.447,451.127v10.653c-1.593-0.106-3.186-0.128-4.78-0.043v-10.653
					C398.26,450.978,399.854,450.989,401.447,451.127z"/>
				<path style="fill:#E1BD80;" d="M401.447,431.956v10.653c-1.593-0.106-3.186-0.117-4.78-0.032v-10.664
					C398.26,431.807,399.854,431.818,401.447,431.956z"/>
				<path style="fill:#E1BD80;" d="M401.447,412.784v10.653c-1.593-0.106-3.186-0.117-4.78-0.032v-10.653
					C398.26,412.646,399.854,412.646,401.447,412.784z"/>
				<rect x="383.199" y="274.559" style="fill:#E4E4E4;" width="15.093" height="8.869"/>
				<rect x="374.511" y="291.925" style="fill:#E4E4E4;" width="15.093" height="8.879"/>
				<path d="M385.547,173.891c2.347,0,4.249,1.912,4.249,4.249c0,2.347-1.901,4.249-4.249,4.249h-41.072
					c-2.347,0-4.249-1.901-4.249-4.249c0-2.337,1.901-4.249,4.249-4.249H385.547z"/>
				<path style="fill:#F1F1F1;" d="M324.974,495.545V401.94c20.488-7.042,42.719-7.042,63.196,0v3.664
					c-1.221,0.329-2.432,0.722-3.622,1.168c-2.199,0.828-3.303,3.282-2.475,5.481c0.829,2.188,3.282,3.303,5.481,2.475
					c0.202-0.085,0.414-0.149,0.616-0.223v10.26c-1.221,0.34-2.432,0.733-3.622,1.179c-2.199,0.828-3.303,3.282-2.475,5.48
					c0.648,1.699,2.262,2.74,3.972,2.74c0.499,0,1.009-0.085,1.508-0.276c0.202-0.074,0.414-0.138,0.616-0.212v10.26
					c-1.221,0.34-2.432,0.722-3.622,1.179c-2.199,0.828-3.303,3.282-2.475,5.47c0.648,1.71,2.262,2.751,3.972,2.751
					c0.499,0,1.009-0.085,1.508-0.276c0.202-0.074,0.414-0.149,0.616-0.212v10.26c-1.221,0.329-2.432,0.722-3.622,1.179
					c-2.199,0.828-3.303,3.282-2.475,5.47c0.648,1.699,2.262,2.751,3.972,2.751c0.499,0,1.009-0.085,1.508-0.276
					c0.202-0.074,0.414-0.149,0.616-0.223v10.271c-1.221,0.329-2.432,0.722-3.622,1.168c-2.199,0.828-3.303,3.282-2.475,5.481
					c0.648,1.699,2.262,2.751,3.972,2.751c0.499,0,1.009-0.096,1.508-0.276c0.202-0.085,0.414-0.149,0.616-0.223v4.365
					c-10.281-3.218-20.945-4.833-31.598-4.833S335.266,492.327,324.974,495.545z M331.293,470.628
					c-2.284,0.563-3.675,2.868-3.112,5.141c0.478,1.944,2.209,3.24,4.121,3.24c0.34,0,0.68-0.042,1.02-0.128
					c12.597-3.112,25.48-3.664,38.311-1.657c2.315,0.372,4.482-1.221,4.854-3.537c0.361-2.315-1.221-4.493-3.547-4.854
					C359.004,466.645,344.995,467.25,331.293,470.628z M331.293,455.843c-2.284,0.563-3.675,2.857-3.112,5.141
					c0.478,1.933,2.209,3.229,4.121,3.229c0.34,0,0.68-0.042,1.02-0.117c12.597-3.112,25.48-3.664,38.311-1.657
					c2.315,0.372,4.482-1.221,4.854-3.537c0.361-2.315-1.221-4.493-3.547-4.854C359.004,451.86,344.995,452.465,331.293,455.843z
					 M331.293,441.048c-2.284,0.563-3.675,2.868-3.112,5.151c0.478,1.933,2.209,3.229,4.121,3.229c0.34,0,0.68-0.042,1.02-0.128
					c12.597-3.101,25.48-3.654,38.311-1.646c2.315,0.361,4.482-1.221,4.854-3.537c0.361-2.326-1.221-4.493-3.547-4.854
					C359.004,437.075,344.995,437.681,331.293,441.048z M331.293,426.263c-2.284,0.563-3.675,2.868-3.112,5.141
					c0.478,1.944,2.209,3.24,4.121,3.24c0.34,0,0.68-0.043,1.02-0.128c12.597-3.101,25.48-3.664,38.311-1.646
					c2.315,0.361,4.482-1.221,4.854-3.548c0.361-2.315-1.221-4.493-3.547-4.854C359.004,422.28,344.995,422.885,331.293,426.263z
					 M331.293,411.478c-2.284,0.563-3.675,2.868-3.112,5.141c0.478,1.933,2.209,3.229,4.121,3.229c0.34,0,0.68-0.032,1.02-0.117
					c12.597-3.112,25.48-3.664,38.311-1.657c2.315,0.372,4.482-1.221,4.854-3.537c0.361-2.315-1.221-4.493-3.547-4.854
					C359.004,407.495,344.995,408.1,331.293,411.478z"/>
				<path d="M380.236,203.992c2.347,0,4.249,1.901,4.249,4.248c0,2.347-1.901,4.249-4.249,4.249h-62.665
					c-2.347,0-4.248-1.901-4.248-4.249c0-2.347,1.901-4.248,4.248-4.248H380.236z"/>
				<path d="M372.939,409.683c2.326,0.361,3.909,2.538,3.547,4.854c-0.372,2.315-2.538,3.909-4.854,3.537
					c-12.83-2.007-25.714-1.455-38.311,1.657c-0.34,0.085-0.68,0.117-1.02,0.117c-1.912,0-3.643-1.296-4.121-3.229
					c-0.563-2.273,0.828-4.578,3.112-5.141C344.995,408.1,359.004,407.495,372.939,409.683z"/>
				<path d="M372.939,424.468c2.326,0.361,3.909,2.538,3.547,4.854c-0.372,2.326-2.538,3.909-4.854,3.548
					c-12.83-2.018-25.714-1.455-38.311,1.646c-0.34,0.085-0.68,0.128-1.02,0.128c-1.912,0-3.643-1.296-4.121-3.24
					c-0.563-2.273,0.828-4.578,3.112-5.141C344.995,422.885,359.004,422.28,372.939,424.468z"/>
				<path d="M372.939,439.263c2.326,0.361,3.909,2.528,3.547,4.854c-0.372,2.315-2.538,3.898-4.854,3.537
					c-12.83-2.007-25.714-1.455-38.311,1.646c-0.34,0.085-0.68,0.128-1.02,0.128c-1.912,0-3.643-1.296-4.121-3.229
					c-0.563-2.284,0.828-4.588,3.112-5.151C344.995,437.681,359.004,437.075,372.939,439.263z"/>
				<path d="M372.939,454.048c2.326,0.361,3.909,2.538,3.547,4.854c-0.372,2.316-2.538,3.909-4.854,3.537
					c-12.83-2.007-25.714-1.455-38.311,1.657c-0.34,0.074-0.68,0.117-1.02,0.117c-1.912,0-3.643-1.296-4.121-3.229
					c-0.563-2.284,0.828-4.578,3.112-5.141C344.995,452.465,359.004,451.86,372.939,454.048z"/>
				<path d="M372.939,468.833c2.326,0.361,3.909,2.539,3.547,4.854c-0.372,2.315-2.538,3.909-4.854,3.537
					c-12.83-2.007-25.714-1.455-38.311,1.657c-0.34,0.085-0.68,0.128-1.02,0.128c-1.912,0-3.643-1.296-4.121-3.24
					c-0.563-2.273,0.828-4.578,3.112-5.141C344.995,467.25,359.004,466.645,372.939,468.833z"/>
				<rect x="359.599" y="309.302" style="fill:#E4E4E4;" width="15.103" height="8.869"/>
				<rect x="359.599" y="274.559" style="fill:#E4E4E4;" width="15.103" height="8.869"/>
				<rect x="350.921" y="291.925" style="fill:#E4E4E4;" width="15.093" height="8.879"/>
				<rect x="336.009" y="309.302" style="fill:#E4E4E4;" width="15.093" height="8.869"/>
				<rect x="336.009" y="274.559" style="fill:#E4E4E4;" width="15.093" height="8.869"/>
				<path d="M346.248,219.031c2.347,0,4.249,1.912,4.249,4.249c0,2.347-1.901,4.249-4.249,4.249h-28.677
					c-2.347,0-4.248-1.901-4.248-4.249c0-2.337,1.901-4.249,4.248-4.249H346.248z"/>
				<path d="M345.887,188.941c2.347,0,4.249,1.901,4.249,4.249c0,2.347-1.901,4.249-4.249,4.249h-28.316
					c-2.347,0-4.248-1.901-4.248-4.249c0-2.347,1.901-4.249,4.248-4.249H345.887z"/>
				<rect x="327.332" y="291.925" style="fill:#E4E4E4;" width="15.093" height="8.879"/>
				<path d="M331.378,173.891c2.347,0,4.249,1.912,4.249,4.249c0,2.347-1.901,4.249-4.249,4.249h-13.808
					c-2.347,0-4.248-1.901-4.248-4.249c0-2.337,1.901-4.249,4.248-4.249H331.378z"/>
				<rect x="313.885" y="309.302" style="fill:#E4E4E4;" width="13.627" height="8.869"/>
				<rect x="313.885" y="274.559" style="fill:#E4E4E4;" width="13.627" height="8.869"/>
				<rect x="313.885" y="291.925" style="fill:#E4E4E4;" width="4.95" height="8.879"/>
				<path style="fill:#B0B0B0;" d="M299.292,118.841h206.488c1.997,0,3.675,1.359,4.195,3.186H295.096
					C295.627,120.201,297.295,118.841,299.292,118.841z"/>
				<path d="M281.809,211.066v93.382c0,2.347-1.901,4.249-4.249,4.249H165.687c-2.347,0-4.249-1.901-4.249-4.249v-93.382
					c0-2.337,1.901-4.249,4.249-4.249h7.435v-3.186c0-2.337,1.901-4.249,4.249-4.249s4.249,1.912,4.249,4.249v3.186h9.134v-3.186
					c0-2.337,1.901-4.249,4.248-4.249c2.347,0,4.249,1.912,4.249,4.249v3.186h9.134v-3.186c0-2.337,1.901-4.249,4.248-4.249
					c2.347,0,4.249,1.912,4.249,4.249v3.186h9.134v-3.186c0-2.337,1.901-4.249,4.249-4.249c2.347,0,4.248,1.912,4.248,4.249v3.186
					h9.134v-3.186c0-2.337,1.901-4.249,4.249-4.249c2.347,0,4.249,1.912,4.249,4.249v3.186h9.134v-3.186
					c0-2.337,1.901-4.249,4.248-4.249c2.347,0,4.249,1.912,4.249,4.249v3.186h7.785
					C279.908,206.817,281.809,208.729,281.809,211.066z M273.312,300.199v-27.796v-12.299v-12.299v-32.491h-3.537v2.655
					c0,2.347-1.901,4.248-4.249,4.248c-2.347,0-4.248-1.901-4.248-4.248v-2.655h-9.134v2.655c0,2.347-1.901,4.248-4.249,4.248
					c-2.347,0-4.249-1.901-4.249-4.248v-2.655h-9.134v2.655c0,2.347-1.901,4.248-4.248,4.248c-2.347,0-4.249-1.901-4.249-4.248
					v-2.655h-9.134v2.655c0,2.347-1.901,4.248-4.249,4.248c-2.347,0-4.248-1.901-4.248-4.248v-2.655h-9.134v2.655
					c0,2.347-1.901,4.248-4.249,4.248c-2.347,0-4.248-1.901-4.248-4.248v-2.655h-9.134v2.655c0,2.347-1.901,4.248-4.249,4.248
					s-4.249-1.901-4.249-4.248v-2.655h-3.186v32.491v12.299v12.299v27.796H273.312z"/>
				<path d="M273.492,397.469v105.533c0,2.347-1.901,4.249-4.249,4.249h-70.1c-2.347,0-4.248-1.901-4.248-4.249V397.469
					c0-2.337,1.901-4.249,4.248-4.249h10.027l0.86-3.282c0.605-2.273,2.932-3.622,5.204-3.027c2.262,0.605,3.611,2.931,3.016,5.194
					l-0.297,1.115h6.776l0.871-3.282c0.605-2.273,2.932-3.622,5.194-3.027c2.273,0.605,3.622,2.931,3.016,5.194l-0.287,1.115h6.776
					l0.871-3.282c0.595-2.273,2.921-3.622,5.194-3.027c2.262,0.605,3.622,2.931,3.016,5.194l-0.297,1.115h6.776l0.871-3.282
					c0.605-2.273,2.931-3.622,5.194-3.027c2.273,0.605,3.622,2.931,3.027,5.194l-0.297,1.115h4.588
					C271.591,393.22,273.492,395.132,273.492,397.469z M264.995,498.753v-3.569h-61.603v3.569H264.995z M264.995,486.687v-84.97
					h-2.592l-1.413,5.342c-0.499,1.901-2.22,3.165-4.1,3.165c-0.361,0-0.733-0.053-1.094-0.149
					c-2.262-0.595-3.622-2.921-3.016-5.194l0.839-3.165h-6.776l-1.413,5.342c-0.51,1.901-2.23,3.165-4.111,3.165
					c-0.361,0-0.722-0.053-1.083-0.149c-2.273-0.595-3.622-2.921-3.027-5.194l0.839-3.165h-6.776l-1.413,5.342
					c-0.499,1.901-2.22,3.165-4.1,3.165c-0.361,0-0.733-0.053-1.094-0.149c-2.273-0.595-3.622-2.921-3.016-5.194l0.828-3.165h-6.776
					l-1.413,5.342c-0.499,1.901-2.22,3.165-4.1,3.165c-0.361,0-0.722-0.053-1.094-0.149c-2.262-0.595-3.622-2.921-3.017-5.194
					l0.839-3.165h-3.526v84.97H264.995z"/>
				<path d="M266.228,231.246c2.347,0,4.249,1.912,4.249,4.249c0,2.347-1.901,4.249-4.249,4.249h-4.249
					c-2.347,0-4.249-1.901-4.249-4.249c0-2.337,1.901-4.249,4.249-4.249H266.228z"/>
				<path d="M266.228,243.556c2.347,0,4.249,1.901,4.249,4.249c0,2.347-1.901,4.248-4.249,4.248h-4.249
					c-2.347,0-4.249-1.901-4.249-4.248c0-2.347,1.901-4.249,4.249-4.249H266.228z"/>
				<path d="M266.228,255.855c2.347,0,4.249,1.901,4.249,4.249c0,2.347-1.901,4.248-4.249,4.248h-4.249
					c-2.347,0-4.249-1.901-4.249-4.248c0-2.347,1.901-4.249,4.249-4.249H266.228z"/>
				<path d="M266.228,268.155c2.347,0,4.249,1.912,4.249,4.249c0,2.347-1.901,4.249-4.249,4.249h-4.249
					c-2.347,0-4.249-1.901-4.249-4.249c0-2.337,1.901-4.249,4.249-4.249H266.228z"/>
				<path d="M267.651,320.465v55.23c0,2.347-1.901,4.249-4.249,4.249h-88.687c-2.347,0-4.249-1.901-4.249-4.249v-55.23
					c0-2.337,1.901-4.249,4.249-4.249h88.687C265.75,316.216,267.651,318.128,267.651,320.465z M259.154,371.447V337.99h-53.637
					v33.457H259.154z M259.154,329.492v-4.779h-3.367v4.779H259.154z M247.29,329.492v-4.779h-3.717v4.779H247.29z M235.075,329.492
					v-4.779h-3.717v4.779H235.075z M222.861,329.492v-4.779h-43.898v4.779H222.861z M197.02,371.447v-5.311h-18.056v5.311H197.02z
					 M197.02,357.639v-5.842h-18.056v5.842H197.02z M197.02,343.3v-5.311h-18.056v5.311H197.02z"/>
				<rect x="203.392" y="495.184" style="fill:#B0B0B0;" width="61.603" height="3.569"/>
				<path style="fill:#66A8DE;" d="M259.154,337.99v33.457h-53.637V337.99H259.154z M254.321,355.249
					c0-6.394-5.204-11.588-11.598-11.588c-6.394,0-11.598,5.194-11.598,11.588c0,6.394,5.204,11.598,11.598,11.598
					C249.117,366.848,254.321,361.643,254.321,355.249z M224.932,355.249c0-2.485-2.018-4.514-4.514-4.514s-4.514,2.029-4.514,4.514
					c0,2.496,2.018,4.514,4.514,4.514S224.932,357.745,224.932,355.249z"/>
				<rect x="255.787" y="324.713" style="fill:#E4E4E4;" width="3.367" height="4.78"/>
				<path d="M252.133,231.246c2.337,0,4.248,1.912,4.248,4.249c0,2.347-1.912,4.249-4.248,4.249h-4.249
					c-2.347,0-4.248-1.901-4.248-4.249c0-2.337,1.901-4.249,4.248-4.249H252.133z"/>
				<path d="M252.133,243.556c2.337,0,4.248,1.901,4.248,4.249c0,2.347-1.912,4.248-4.248,4.248h-4.249
					c-2.347,0-4.248-1.901-4.248-4.248c0-2.347,1.901-4.249,4.248-4.249H252.133z"/>
				<path d="M252.133,255.855c2.337,0,4.248,1.901,4.248,4.249c0,2.347-1.912,4.248-4.248,4.248h-4.249
					c-2.347,0-4.248-1.901-4.248-4.248c0-2.347,1.901-4.249,4.248-4.249H252.133z"/>
				<path d="M252.133,268.155c2.337,0,4.248,1.912,4.248,4.249c0,2.347-1.912,4.249-4.248,4.249h-4.249
					c-2.347,0-4.248-1.901-4.248-4.249c0-2.337,1.901-4.249,4.248-4.249H252.133z"/>
				<path d="M250.657,425.084c2.347,0,4.248,1.912,4.248,4.249c0,2.347-1.901,4.249-4.248,4.249h-32.926
					c-2.347,0-4.249-1.901-4.249-4.249c0-2.337,1.901-4.249,4.249-4.249H250.657z"/>
				<path d="M250.657,437.298c2.347,0,4.248,1.912,4.248,4.249c0,2.347-1.901,4.248-4.248,4.248h-32.926
					c-2.347,0-4.249-1.901-4.249-4.248c0-2.337,1.901-4.249,4.249-4.249H250.657z"/>
				<path d="M242.723,343.661c6.394,0,11.598,5.194,11.598,11.588c0,6.394-5.204,11.598-11.598,11.598
					c-6.394,0-11.598-5.204-11.598-11.598C231.124,348.855,236.329,343.661,242.723,343.661z M245.824,355.249
					c0-1.699-1.391-3.091-3.101-3.091c-1.71,0-3.102,1.391-3.102,3.091c0,1.71,1.391,3.101,3.102,3.101
					C244.433,358.35,245.824,356.959,245.824,355.249z"/>
				<rect x="243.572" y="324.713" style="fill:#E4E4E4;" width="3.717" height="4.78"/>
				<path style="fill:#CB6541;" d="M242.723,352.158c1.71,0,3.101,1.391,3.101,3.091c0,1.71-1.391,3.101-3.101,3.101
					c-1.71,0-3.102-1.391-3.102-3.101C239.621,353.55,241.013,352.158,242.723,352.158z"/>
				<path d="M238.028,231.246c2.347,0,4.248,1.912,4.248,4.249c0,2.347-1.901,4.249-4.248,4.249h-4.249
					c-2.347,0-4.249-1.901-4.249-4.249c0-2.337,1.901-4.249,4.249-4.249H238.028z"/>
				<path d="M238.028,243.556c2.347,0,4.248,1.901,4.248,4.249c0,2.347-1.901,4.248-4.248,4.248h-4.249
					c-2.347,0-4.249-1.901-4.249-4.248c0-2.347,1.901-4.249,4.249-4.249H238.028z"/>
				<path d="M238.028,255.855c2.347,0,4.248,1.901,4.248,4.249c0,2.347-1.901,4.248-4.248,4.248h-4.249
					c-2.347,0-4.249-1.901-4.249-4.248c0-2.347,1.901-4.249,4.249-4.249H238.028z"/>
				<path d="M238.028,268.155c2.347,0,4.248,1.912,4.248,4.249c0,2.347-1.901,4.249-4.248,4.249h-4.249
					c-2.347,0-4.249-1.901-4.249-4.249c0-2.337,1.901-4.249,4.249-4.249H238.028z"/>
				<rect x="231.358" y="324.713" style="fill:#E4E4E4;" width="3.717" height="4.78"/>
				<path d="M223.923,231.246c2.347,0,4.249,1.912,4.249,4.249c0,2.347-1.901,4.249-4.249,4.249h-4.249
					c-2.347,0-4.248-1.901-4.248-4.249c0-2.337,1.901-4.249,4.248-4.249H223.923z"/>
				<path d="M223.923,243.556c2.347,0,4.249,1.901,4.249,4.249c0,2.347-1.901,4.248-4.249,4.248h-4.249
					c-2.347,0-4.248-1.901-4.248-4.248c0-2.347,1.901-4.249,4.248-4.249H223.923z"/>
				<path d="M223.923,255.855c2.347,0,4.249,1.901,4.249,4.249c0,2.347-1.901,4.248-4.249,4.248h-4.249
					c-2.347,0-4.248-1.901-4.248-4.248c0-2.347,1.901-4.249,4.248-4.249H223.923z"/>
				<path d="M223.923,268.155c2.347,0,4.249,1.912,4.249,4.249c0,2.347-1.901,4.249-4.249,4.249h-4.249
					c-2.347,0-4.248-1.901-4.248-4.249c0-2.337,1.901-4.249,4.248-4.249H223.923z"/>
				<path d="M223.923,280.465c2.347,0,4.249,1.901,4.249,4.248c0,2.347-1.901,4.249-4.249,4.249h-4.249
					c-2.347,0-4.248-1.901-4.248-4.249c0-2.347,1.901-4.248,4.248-4.248H223.923z"/>
				<path d="M220.418,350.735c2.496,0,4.514,2.029,4.514,4.514c0,2.496-2.018,4.514-4.514,4.514s-4.514-2.018-4.514-4.514
					C215.904,352.764,217.922,350.735,220.418,350.735z"/>
				<rect x="178.963" y="324.713" style="fill:#66A8DE;" width="43.898" height="4.78"/>
				<path style="fill:#E4E4E4;" d="M261.979,231.246c-2.347,0-4.249,1.912-4.249,4.249c0,2.347,1.901,4.249,4.249,4.249h4.249
					c2.347,0,4.249-1.901,4.249-4.249c0-2.337-1.901-4.249-4.249-4.249H261.979z M247.885,231.246c-2.347,0-4.248,1.912-4.248,4.249
					c0,2.347,1.901,4.249,4.248,4.249h4.249c2.337,0,4.248-1.901,4.248-4.249c0-2.337-1.912-4.249-4.248-4.249H247.885z
					 M242.277,235.494c0-2.337-1.901-4.249-4.248-4.249h-4.249c-2.347,0-4.249,1.912-4.249,4.249c0,2.347,1.901,4.249,4.249,4.249
					h4.249C240.375,239.743,242.277,237.842,242.277,235.494z M228.172,235.494c0-2.337-1.901-4.249-4.249-4.249h-4.249
					c-2.347,0-4.248,1.912-4.248,4.249c0,2.347,1.901,4.249,4.248,4.249h4.249C226.27,239.743,228.172,237.842,228.172,235.494z
					 M214.067,235.494c0-2.337-1.901-4.249-4.248-4.249h-4.249c-2.347,0-4.249,1.912-4.249,4.249c0,2.347,1.901,4.249,4.249,4.249
					h4.249C212.165,239.743,214.067,237.842,214.067,235.494z M185.867,247.805c0-2.347-1.901-4.249-4.249-4.249h-4.249
					c-2.347,0-4.249,1.901-4.249,4.249h-3.186v-32.491h3.186v2.655c0,2.347,1.901,4.248,4.249,4.248s4.249-1.901,4.249-4.248v-2.655
					h9.134v2.655c0,2.347,1.901,4.248,4.248,4.248c2.347,0,4.249-1.901,4.249-4.248v-2.655h9.134v2.655
					c0,2.347,1.901,4.248,4.248,4.248c2.347,0,4.249-1.901,4.249-4.248v-2.655h9.134v2.655c0,2.347,1.901,4.248,4.249,4.248
					c2.347,0,4.248-1.901,4.248-4.248v-2.655h9.134v2.655c0,2.347,1.901,4.248,4.249,4.248c2.347,0,4.249-1.901,4.249-4.248v-2.655
					h9.134v2.655c0,2.347,1.901,4.248,4.248,4.248c2.347,0,4.249-1.901,4.249-4.248v-2.655h3.537v32.491h-2.836
					c0-2.347-1.901-4.249-4.249-4.249h-4.249c-2.347,0-4.249,1.901-4.249,4.249h-1.349c0-2.347-1.912-4.249-4.248-4.249h-4.249
					c-2.347,0-4.248,1.901-4.248,4.249h-1.36c0-2.347-1.901-4.249-4.248-4.249h-4.249c-2.347,0-4.249,1.901-4.249,4.249h-1.36
					c0-2.347-1.901-4.249-4.249-4.249h-4.249c-2.347,0-4.248,1.901-4.248,4.249h-1.36c0-2.347-1.901-4.249-4.248-4.249h-4.249
					c-2.347,0-4.249,1.901-4.249,4.249h-1.359c0-2.347-1.901-4.249-4.249-4.249h-4.248c-2.337,0-4.249,1.901-4.249,4.249H185.867z"
					/>
				<path style="fill:#E4E4E4;" d="M219.675,280.465c-2.347,0-4.248,1.901-4.248,4.248c0,2.347,1.901,4.249,4.248,4.249h4.249
					c2.347,0,4.249-1.901,4.249-4.249c0-2.347-1.901-4.248-4.249-4.248H219.675z M199.962,284.713c0-2.347-1.901-4.248-4.249-4.248
					h-4.248c-2.337,0-4.249,1.901-4.249,4.248c0,2.347,1.912,4.249,4.249,4.249h4.248
					C198.06,288.962,199.962,287.061,199.962,284.713z M205.57,280.465c-2.347,0-4.249,1.901-4.249,4.248
					c0,2.347,1.901,4.249,4.249,4.249h4.249c2.347,0,4.248-1.901,4.248-4.249c0-2.347-1.901-4.248-4.248-4.248H205.57z
					 M169.935,300.199v-27.796h3.186c0,2.347,1.901,4.249,4.249,4.249h4.249c2.347,0,4.249-1.901,4.249-4.249h1.349
					c0,2.347,1.912,4.249,4.249,4.249h4.248c2.347,0,4.249-1.901,4.249-4.249h1.359c0,2.347,1.901,4.249,4.249,4.249h4.249
					c2.347,0,4.248-1.901,4.248-4.249h1.36c0,2.347,1.901,4.249,4.248,4.249h4.249c2.347,0,4.249-1.901,4.249-4.249h1.36
					c0,2.347,1.901,4.249,4.249,4.249h4.249c2.347,0,4.248-1.901,4.248-4.249h1.36c0,2.347,1.901,4.249,4.248,4.249h4.249
					c2.337,0,4.248-1.901,4.248-4.249h1.349c0,2.347,1.901,4.249,4.249,4.249h4.249c2.347,0,4.249-1.901,4.249-4.249h2.836v27.796
					H169.935z M185.867,284.713c0-2.347-1.901-4.248-4.249-4.248h-4.249c-2.347,0-4.249,1.901-4.249,4.248
					c0,2.347,1.901,4.249,4.249,4.249h4.249C183.966,288.962,185.867,287.061,185.867,284.713z"/>
				<path d="M209.818,231.246c2.347,0,4.248,1.912,4.248,4.249c0,2.347-1.901,4.249-4.248,4.249h-4.249
					c-2.347,0-4.249-1.901-4.249-4.249c0-2.337,1.901-4.249,4.249-4.249H209.818z"/>
				<path d="M209.818,243.556c2.347,0,4.248,1.901,4.248,4.249c0,2.347-1.901,4.248-4.248,4.248h-4.249
					c-2.347,0-4.249-1.901-4.249-4.248c0-2.347,1.901-4.249,4.249-4.249H209.818z"/>
				<path d="M209.818,255.855c2.347,0,4.248,1.901,4.248,4.249c0,2.347-1.901,4.248-4.248,4.248h-4.249
					c-2.347,0-4.249-1.901-4.249-4.248c0-2.347,1.901-4.249,4.249-4.249H209.818z"/>
				<path d="M209.818,268.155c2.347,0,4.248,1.912,4.248,4.249c0,2.347-1.901,4.249-4.248,4.249h-4.249
					c-2.347,0-4.249-1.901-4.249-4.249c0-2.337,1.901-4.249,4.249-4.249H209.818z"/>
				<path d="M209.818,280.465c2.347,0,4.248,1.901,4.248,4.248c0,2.347-1.901,4.249-4.248,4.249h-4.249
					c-2.347,0-4.249-1.901-4.249-4.249c0-2.347,1.901-4.248,4.249-4.248H209.818z"/>
				<path style="fill:#66A8DE;" d="M206.079,404.882c-0.605,2.273,0.754,4.599,3.017,5.194c0.372,0.096,0.733,0.149,1.094,0.149
					c1.88,0,3.601-1.264,4.1-3.165l1.413-5.342h6.776l-0.828,3.165c-0.605,2.273,0.743,4.599,3.016,5.194
					c0.361,0.096,0.733,0.149,1.094,0.149c1.88,0,3.601-1.264,4.1-3.165l1.413-5.342h6.776l-0.839,3.165
					c-0.595,2.273,0.754,4.599,3.027,5.194c0.361,0.096,0.722,0.149,1.083,0.149c1.88,0,3.601-1.264,4.111-3.165l1.413-5.342h6.776
					l-0.839,3.165c-0.605,2.273,0.754,4.599,3.016,5.194c0.361,0.096,0.733,0.149,1.094,0.149c1.88,0,3.601-1.264,4.1-3.165
					l1.413-5.342h2.592v84.97h-61.603v-84.97h3.526L206.079,404.882z M254.905,429.332c0-2.337-1.901-4.249-4.248-4.249h-32.926
					c-2.347,0-4.249,1.912-4.249,4.249c0,2.347,1.901,4.249,4.249,4.249h32.926C253.004,433.581,254.905,431.68,254.905,429.332z
					 M254.905,441.547c0-2.337-1.901-4.249-4.248-4.249h-32.926c-2.347,0-4.249,1.912-4.249,4.249c0,2.347,1.901,4.248,4.249,4.248
					h32.926C253.004,445.795,254.905,443.894,254.905,441.547z"/>
				<path d="M195.713,243.556c2.347,0,4.249,1.901,4.249,4.249c0,2.347-1.901,4.248-4.249,4.248h-4.248
					c-2.337,0-4.249-1.901-4.249-4.248c0-2.347,1.912-4.249,4.249-4.249H195.713z"/>
				<path d="M195.713,255.855c2.347,0,4.249,1.901,4.249,4.249c0,2.347-1.901,4.248-4.249,4.248h-4.248
					c-2.337,0-4.249-1.901-4.249-4.248c0-2.347,1.912-4.249,4.249-4.249H195.713z"/>
				<path d="M195.713,268.155c2.347,0,4.249,1.912,4.249,4.249c0,2.347-1.901,4.249-4.249,4.249h-4.248
					c-2.337,0-4.249-1.901-4.249-4.249c0-2.337,1.912-4.249,4.249-4.249H195.713z"/>
				<path d="M195.713,280.465c2.347,0,4.249,1.901,4.249,4.248c0,2.347-1.901,4.249-4.249,4.249h-4.248
					c-2.337,0-4.249-1.901-4.249-4.249c0-2.347,1.912-4.248,4.249-4.248H195.713z"/>
				<rect x="178.963" y="366.136" style="fill:#487E9C;" width="18.056" height="5.311"/>
				<rect x="178.963" y="351.797" style="fill:#487E9C;" width="18.056" height="5.842"/>
				<rect x="178.963" y="337.99" style="fill:#487E9C;" width="18.056" height="5.311"/>
				<path style="fill:#E4E4E4;" d="M185.867,260.104c0-2.347-1.901-4.249-4.249-4.249h-4.249c-2.347,0-4.249,1.901-4.249,4.249
					h-3.186v-12.299h3.186c0,2.347,1.901,4.248,4.249,4.248h4.249c2.347,0,4.249-1.901,4.249-4.248h1.349
					c0,2.347,1.912,4.248,4.249,4.248h4.248c2.347,0,4.249-1.901,4.249-4.248h1.359c0,2.347,1.901,4.248,4.249,4.248h4.249
					c2.347,0,4.248-1.901,4.248-4.248h1.36c0,2.347,1.901,4.248,4.248,4.248h4.249c2.347,0,4.249-1.901,4.249-4.248h1.36
					c0,2.347,1.901,4.248,4.249,4.248h4.249c2.347,0,4.248-1.901,4.248-4.248h1.36c0,2.347,1.901,4.248,4.248,4.248h4.249
					c2.337,0,4.248-1.901,4.248-4.248h1.349c0,2.347,1.901,4.248,4.249,4.248h4.249c2.347,0,4.249-1.901,4.249-4.248h2.836v12.299
					h-2.836c0-2.347-1.901-4.249-4.249-4.249h-4.249c-2.347,0-4.249,1.901-4.249,4.249h-1.349c0-2.347-1.912-4.249-4.248-4.249
					h-4.249c-2.347,0-4.248,1.901-4.248,4.249h-1.36c0-2.347-1.901-4.249-4.248-4.249h-4.249c-2.347,0-4.249,1.901-4.249,4.249
					h-1.36c0-2.347-1.901-4.249-4.249-4.249h-4.249c-2.347,0-4.248,1.901-4.248,4.249h-1.36c0-2.347-1.901-4.249-4.248-4.249h-4.249
					c-2.347,0-4.249,1.901-4.249,4.249h-1.359c0-2.347-1.901-4.249-4.249-4.249h-4.248c-2.337,0-4.249,1.901-4.249,4.249H185.867z"
					/>
				<path style="fill:#E4E4E4;" d="M185.867,272.403c0-2.337-1.901-4.249-4.249-4.249h-4.249c-2.347,0-4.249,1.912-4.249,4.249
					h-3.186v-12.299h3.186c0,2.347,1.901,4.248,4.249,4.248h4.249c2.347,0,4.249-1.901,4.249-4.248h1.349
					c0,2.347,1.912,4.248,4.249,4.248h4.248c2.347,0,4.249-1.901,4.249-4.248h1.359c0,2.347,1.901,4.248,4.249,4.248h4.249
					c2.347,0,4.248-1.901,4.248-4.248h1.36c0,2.347,1.901,4.248,4.248,4.248h4.249c2.347,0,4.249-1.901,4.249-4.248h1.36
					c0,2.347,1.901,4.248,4.249,4.248h4.249c2.347,0,4.248-1.901,4.248-4.248h1.36c0,2.347,1.901,4.248,4.248,4.248h4.249
					c2.337,0,4.248-1.901,4.248-4.248h1.349c0,2.347,1.901,4.248,4.249,4.248h4.249c2.347,0,4.249-1.901,4.249-4.248h2.836v12.299
					h-2.836c0-2.337-1.901-4.249-4.249-4.249h-4.249c-2.347,0-4.249,1.912-4.249,4.249h-1.349c0-2.337-1.912-4.249-4.248-4.249
					h-4.249c-2.347,0-4.248,1.912-4.248,4.249h-1.36c0-2.337-1.901-4.249-4.248-4.249h-4.249c-2.347,0-4.249,1.912-4.249,4.249
					h-1.36c0-2.337-1.901-4.249-4.249-4.249h-4.249c-2.347,0-4.248,1.912-4.248,4.249h-1.36c0-2.337-1.901-4.249-4.248-4.249h-4.249
					c-2.347,0-4.249,1.912-4.249,4.249h-1.359c0-2.337-1.901-4.249-4.249-4.249h-4.248c-2.337,0-4.249,1.912-4.249,4.249H185.867z"
					/>
				<path d="M181.619,243.556c2.347,0,4.249,1.901,4.249,4.249c0,2.347-1.901,4.248-4.249,4.248h-4.249
					c-2.347,0-4.249-1.901-4.249-4.248c0-2.347,1.901-4.249,4.249-4.249H181.619z"/>
				<path d="M181.619,255.855c2.347,0,4.249,1.901,4.249,4.249c0,2.347-1.901,4.248-4.249,4.248h-4.249
					c-2.347,0-4.249-1.901-4.249-4.248c0-2.347,1.901-4.249,4.249-4.249H181.619z"/>
				<path d="M181.619,268.155c2.347,0,4.249,1.912,4.249,4.249c0,2.347-1.901,4.249-4.249,4.249h-4.249
					c-2.347,0-4.249-1.901-4.249-4.249c0-2.337,1.901-4.249,4.249-4.249H181.619z"/>
				<path d="M181.619,280.465c2.347,0,4.249,1.901,4.249,4.248c0,2.347-1.901,4.249-4.249,4.249h-4.249
					c-2.347,0-4.249-1.901-4.249-4.249c0-2.347,1.901-4.248,4.249-4.248H181.619z"/>
			</g>
			<g>
			</g>
		</g>
	</g>
</g>
</svg>
