<?xml version="1.0" standalone="no"?>
<!DOCTYPE svg PUBLIC "-//W3C//DTD SVG 20010904//EN"
 "http://www.w3.org/TR/2001/REC-SVG-20010904/DTD/svg10.dtd">
<svg version="1.0" xmlns="http://www.w3.org/2000/svg"
 width="500.000000pt" height="500.000000pt" viewBox="0 0 500.000000 500.000000"
 preserveAspectRatio="xMidYMid meet">

<g transform="translate(0.000000,500.000000) scale(0.100000,-0.100000)"
fill="#000000" stroke="none">
<path d="M0 2500 l0 -2500 2500 0 2500 0 0 1041 0 1041 -31 -26 c-37 -31 -110
-36 -148 -10 -28 20 -51 72 -51 114 0 34 6 36 57 15 50 -21 52 -12 3 10 -49
22 -49 40 -1 72 43 29 67 29 125 -2 l46 -24 0 1384 0 1385 -2500 0 -2500 0 0
-2500z m4980 2480 c0 -5 -4 -10 -10 -10 -5 0 -10 5 -10 10 0 6 5 10 10 10 6 0
10 -4 10 -10z m-1160 -10 c0 -5 -4 -10 -10 -10 -5 0 -10 5 -10 10 0 6 5 10 10
10 6 0 10 -4 10 -10z m-1250 -125 c0 -8 -7 -15 -15 -15 -8 0 -15 7 -15 15 0 8
7 15 15 15 8 0 15 -7 15 -15z m1430 0 c0 -8 -7 -15 -15 -15 -8 0 -15 7 -15 15
0 8 7 15 15 15 8 0 15 -7 15 -15z m-872 -28 c3 -21 -1 -27 -15 -27 -29 0 -44
20 -32 42 15 27 43 18 47 -15z m-418 -102 c0 -8 -4 -15 -9 -15 -13 0 -22 16
-14 24 11 11 23 6 23 -9z m745 5 c3 -5 1 -10 -4 -10 -6 0 -11 5 -11 10 0 6 2
10 4 10 3 0 8 -4 11 -10z m-1320 -121 c4 -6 13 -8 21 -5 17 7 7 -24 -14 -41
-24 -19 -50 -16 -57 7 -11 35 33 68 50 39z m1505 -99 c0 -5 -5 -10 -11 -10 -5
0 -7 5 -4 10 3 6 8 10 11 10 2 0 4 -4 4 -10z m-652 -48 c2 -7 -3 -12 -12 -12
-9 0 -16 7 -16 16 0 17 22 14 28 -4z m550 -28 c30 -20 28 -52 -3 -66 -22 -10
-29 -9 -47 10 -20 20 -20 22 -4 46 19 30 24 31 54 10z m-138 -354 c0 -5 -4
-10 -10 -10 -5 0 -10 5 -10 10 0 6 5 10 10 10 6 0 10 -4 10 -10z m260 -250 c0
-5 -2 -10 -4 -10 -3 0 -8 5 -11 10 -3 6 -1 10 4 10 6 0 11 -4 11 -10z m-1460
-284 l0 -104 -55 -1 c-64 0 -75 12 -75 82 0 54 26 83 65 73 21 -5 25 -3 25 17
0 27 7 37 27 37 10 0 13 -24 13 -104z m338 -3 l3 -101 -55 -1 c-46 0 -58 3
-71 22 -44 62 16 172 70 127 13 -11 15 -7 15 25 0 29 3 36 18 33 15 -3 17 -17
20 -105z m580 74 c3 -23 7 -26 28 -21 41 10 64 -19 64 -81 0 -31 -5 -57 -13
-63 -7 -6 -36 -11 -65 -10 l-52 0 0 105 c0 94 2 104 18 101 10 -2 18 -14 20
-31z m204 -54 l3 -88 33 -3 c49 -5 43 -32 -7 -32 -54 0 -71 25 -71 107 0 56
-2 63 -19 63 -11 0 -23 5 -26 10 -11 18 6 30 45 30 l39 0 3 -87z m-1722 27 c0
-7 7 -7 20 0 49 26 80 -13 80 -101 0 -42 -3 -49 -20 -49 -16 0 -19 8 -22 57
-2 47 -6 58 -22 61 -26 5 -36 -15 -36 -70 0 -36 -4 -48 -15 -48 -12 0 -15 16
-15 80 0 64 3 80 15 80 8 0 15 -5 15 -10z m245 -15 c14 -13 25 -33 25 -45 0
-17 -6 -20 -51 -20 -43 0 -50 -3 -47 -17 3 -14 12 -17 46 -15 23 1 42 -1 42
-6 0 -33 -80 -44 -112 -15 -21 19 -25 91 -5 115 27 34 70 36 102 3z m101 14
c4 -8 9 -8 17 0 26 26 77 -1 77 -40 0 -12 -7 -19 -20 -19 -11 0 -20 7 -20 15
0 9 -9 15 -25 15 -24 0 -25 -3 -25 -60 0 -53 -2 -60 -20 -60 -18 0 -20 7 -20
73 0 41 3 77 7 80 9 10 21 8 29 -4z m341 -41 l20 -52 17 52 c13 38 23 52 34
50 8 -2 16 -6 16 -9 1 -3 -14 -49 -33 -102 -27 -74 -39 -97 -53 -97 -20 0 -23
12 -9 38 6 12 2 35 -14 75 -38 93 -39 97 -17 97 14 0 25 -14 39 -52z m398 27
c14 -13 25 -33 25 -45 0 -17 -6 -20 -51 -20 -43 0 -50 -3 -47 -17 3 -14 12
-17 46 -15 23 1 42 -1 42 -6 0 -33 -80 -44 -112 -15 -21 19 -25 91 -5 115 27
34 70 36 102 3z m103 -32 l19 -58 17 53 c17 49 38 73 53 58 3 -3 -6 -39 -22
-81 -23 -64 -31 -75 -50 -75 -16 0 -25 7 -29 25 -3 13 -15 29 -27 35 -15 9
-18 15 -9 24 7 9 7 22 1 39 -5 14 -7 28 -4 31 17 17 33 0 51 -51z m737 32 c29
-28 33 -79 9 -113 -11 -16 -25 -22 -51 -22 -50 0 -73 23 -73 74 0 46 6 58 35
74 31 18 54 14 80 -13z m185 -67 c0 -82 -2 -89 -24 -103 -14 -9 -37 -15 -52
-13 -32 4 -46 28 -16 28 31 0 52 11 52 26 0 10 -7 13 -25 8 -38 -9 -65 19 -65
69 0 57 20 75 80 74 l50 -1 0 -88z m278 50 c13 -13 -2 -48 -21 -48 -23 0 -37
22 -26 42 11 21 30 23 47 6z m-988 -93 c0 -18 -5 -25 -19 -25 -11 0 -23 5 -26
10 -11 18 3 40 25 40 15 0 20 -7 20 -25z m-360 -145 c0 -5 -2 -10 -4 -10 -3 0
-8 5 -11 10 -3 6 -1 10 4 10 6 0 11 -4 11 -10z m2245 -185 c0 -22 -31 -33 -47
-17 -17 17 -1 44 24 40 15 -2 23 -10 23 -23z m-985 -409 c0 -3 -4 -8 -10 -11
-5 -3 -10 -1 -10 4 0 6 5 11 10 11 6 0 10 -2 10 -4z m-80 -111 c0 -19 -25 -36
-44 -29 -20 8 -21 28 0 49 12 12 19 13 30 4 8 -6 14 -17 14 -24z m-45 -495 c3
-5 1 -10 -4 -10 -6 0 -11 5 -11 10 0 6 2 10 4 10 3 0 8 -4 11 -10z m-75 -191
c87 -166 190 -392 190 -416 l0 -23 -1260 0 -1260 0 0 25 c0 14 56 136 124 273
l124 247 1013 -1 1014 -1 55 -104z m1290 -298 c0 -6 -4 -13 -10 -16 -5 -3 -10
1 -10 9 0 9 5 16 10 16 6 0 10 -4 10 -9z m-1257 -882 c-6 -21 -39 -26 -46 -6
-2 6 -2 20 1 29 3 13 8 15 27 6 15 -7 21 -16 18 -29z"/>
<path d="M2112 3508 c2 -35 7 -43 23 -43 16 0 21 8 23 43 3 39 2 42 -23 42
-25 0 -26 -3 -23 -42z"/>
<path d="M2444 3537 c-3 -9 -4 -28 -2 -44 2 -22 8 -28 28 -28 23 0 25 4 25 40
0 34 -3 40 -23 43 -13 2 -24 -3 -28 -11z"/>
<path d="M3122 3508 c2 -35 7 -43 23 -43 16 0 21 8 23 43 3 39 2 42 -23 42
-25 0 -26 -3 -23 -42z"/>
<path d="M1783 3553 c-26 -10 -13 -33 17 -33 32 0 37 9 18 28 -13 13 -16 13
-35 5z"/>
<path d="M2623 3553 c-26 -10 -13 -33 17 -33 32 0 37 9 18 28 -13 13 -16 13
-35 5z"/>
<path d="M3454 3537 c-3 -9 -4 -28 -2 -44 2 -22 8 -28 28 -28 23 0 25 4 25 40
0 34 -3 40 -23 43 -13 2 -24 -3 -28 -11z"/>
<path d="M3620 3516 c0 -19 6 -36 13 -39 24 -8 37 6 37 39 0 30 -3 34 -25 34
-22 0 -25 -4 -25 -34z"/>
<path d="M1800 1960 c0 -5 22 -10 49 -10 28 0 53 5 56 10 4 6 -15 10 -49 10
-31 0 -56 -4 -56 -10z"/>
<path d="M1940 1960 c0 -5 22 -10 49 -10 28 0 53 5 56 10 4 6 -15 10 -49 10
-31 0 -56 -4 -56 -10z"/>
<path d="M2080 1960 c0 -5 25 -10 55 -10 30 0 55 5 55 10 0 6 -25 10 -55 10
-30 0 -55 -4 -55 -10z"/>
<path d="M2230 1960 c0 -5 23 -10 50 -10 28 0 50 5 50 10 0 6 -22 10 -50 10
-27 0 -50 -4 -50 -10z"/>
<path d="M2370 1960 c0 -5 23 -10 50 -10 28 0 50 5 50 10 0 6 -22 10 -50 10
-27 0 -50 -4 -50 -10z"/>
<path d="M2510 1960 c0 -5 23 -10 50 -10 28 0 50 5 50 10 0 6 -22 10 -50 10
-27 0 -50 -4 -50 -10z"/>
<path d="M2650 1960 c0 -5 23 -10 50 -10 28 0 50 5 50 10 0 6 -22 10 -50 10
-27 0 -50 -4 -50 -10z"/>
<path d="M2790 1960 c0 -5 25 -10 55 -10 30 0 55 5 55 10 0 6 -25 10 -55 10
-30 0 -55 -4 -55 -10z"/>
<path d="M2935 1960 c3 -5 28 -10 56 -10 27 0 49 5 49 10 0 6 -25 10 -56 10
-34 0 -53 -4 -49 -10z"/>
<path d="M3075 1960 c3 -5 28 -10 56 -10 27 0 49 5 49 10 0 6 -25 10 -56 10
-34 0 -53 -4 -49 -10z"/>
<path d="M3215 1960 c3 -5 28 -10 56 -10 27 0 49 5 49 10 0 6 -25 10 -56 10
-34 0 -53 -4 -49 -10z"/>
<path d="M3360 1960 c0 -5 23 -10 50 -10 28 0 50 5 50 10 0 6 -22 10 -50 10
-27 0 -50 -4 -50 -10z"/>
<path d="M1792 1928 c-22 -22 -12 -29 40 -26 41 2 54 7 56 21 3 14 -4 17 -40
17 -24 0 -49 -5 -56 -12z"/>
<path d="M1916 1924 c-3 -9 -6 -18 -6 -20 0 -2 22 -4 49 -4 45 0 61 10 61 36
0 2 -22 4 -49 4 -35 0 -51 -4 -55 -16z"/>
<path d="M2047 1933 c-4 -3 -7 -12 -7 -20 0 -9 15 -13 50 -13 43 0 50 3 50 20
0 17 -7 20 -43 20 -24 0 -47 -3 -50 -7z"/>
<path d="M2170 1920 c0 -17 7 -20 50 -20 43 0 50 3 50 20 0 17 -7 20 -50 20
-43 0 -50 -3 -50 -20z"/>
<path d="M2297 1934 c-4 -4 -7 -14 -7 -21 0 -11 13 -13 53 -11 38 2 52 7 52
18 0 11 -13 16 -45 18 -25 2 -49 0 -53 -4z"/>
<path d="M2427 1933 c-4 -3 -7 -12 -7 -20 0 -9 15 -13 50 -13 43 0 50 3 50 20
0 17 -7 20 -43 20 -24 0 -47 -3 -50 -7z"/>
<path d="M2550 1920 c0 -17 7 -20 50 -20 43 0 50 3 50 20 0 17 -7 20 -50 20
-43 0 -50 -3 -50 -20z"/>
<path d="M2680 1921 c0 -18 6 -21 51 -21 43 0 50 3 47 18 -2 13 -15 18 -51 20
-42 3 -47 1 -47 -17z"/>
<path d="M2805 1930 c-12 -19 6 -30 49 -30 47 0 57 5 49 26 -6 16 -88 20 -98
4z"/>
<path d="M2930 1920 c0 -17 7 -20 50 -20 43 0 50 3 50 20 0 17 -7 20 -50 20
-43 0 -50 -3 -50 -20z"/>
<path d="M3060 1921 c0 -18 6 -21 51 -21 43 0 50 3 47 18 -2 13 -15 18 -51 20
-42 3 -47 1 -47 -17z"/>
<path d="M3184 1924 c3 -9 6 -18 6 -20 0 -2 23 -4 51 -4 43 0 50 3 45 16 -3 9
-6 18 -6 20 0 2 -23 4 -51 4 -43 0 -50 -3 -45 -16z"/>
<path d="M3307 1934 c-3 -3 -3 -12 0 -20 4 -10 26 -14 90 -14 74 0 84 2 79 16
-3 9 -6 18 -6 20 0 6 -156 5 -163 -2z"/>
<path d="M1770 1870 c-11 -20 -10 -21 77 -18 70 2 88 6 88 18 0 12 -17 16 -77
18 -69 3 -78 1 -88 -18z"/>
<path d="M1973 1884 c-7 -3 -13 -12 -13 -20 0 -12 12 -14 53 -12 38 2 52 7 52
18 0 11 -12 16 -40 17 -22 1 -46 0 -52 -3z"/>
<path d="M2103 1884 c-7 -3 -13 -12 -13 -20 0 -12 12 -14 53 -12 38 2 52 7 52
18 0 11 -12 16 -40 17 -22 1 -46 0 -52 -3z"/>
<path d="M2233 1884 c-7 -3 -13 -12 -13 -20 0 -12 12 -14 53 -12 38 2 52 7 52
18 0 11 -12 16 -40 17 -22 1 -46 0 -52 -3z"/>
<path d="M2357 1884 c-4 -4 -7 -13 -7 -21 0 -9 16 -13 56 -13 47 0 55 3 52 18
-2 13 -15 18 -48 20 -25 2 -49 0 -53 -4z"/>
<path d="M2487 1884 c-4 -4 -7 -13 -7 -21 0 -9 16 -13 56 -13 47 0 55 3 52 18
-2 13 -15 18 -48 20 -25 2 -49 0 -53 -4z"/>
<path d="M2617 1884 c-4 -4 -7 -13 -7 -21 0 -9 16 -13 56 -13 47 0 55 3 52 18
-2 13 -15 18 -48 20 -25 2 -49 0 -53 -4z"/>
<path d="M2747 1883 c-4 -3 -7 -12 -7 -20 0 -9 16 -13 55 -13 40 0 55 4 55 14
0 8 -7 17 -16 20 -21 8 -79 8 -87 -1z"/>
<path d="M2877 1883 c-4 -3 -7 -12 -7 -20 0 -9 16 -13 55 -13 40 0 55 4 55 14
0 8 -7 17 -16 20 -21 8 -79 8 -87 -1z"/>
<path d="M3007 1883 c-4 -3 -7 -12 -7 -20 0 -9 16 -13 55 -13 40 0 55 4 55 14
0 8 -7 17 -16 20 -21 8 -79 8 -87 -1z"/>
<path d="M3135 1880 c-12 -20 7 -30 56 -30 50 0 59 6 37 28 -15 15 -84 16 -93
2z"/>
<path d="M3265 1880 c-12 -20 7 -30 56 -30 50 0 59 6 37 28 -15 15 -84 16 -93
2z"/>
<path d="M3395 1880 c-12 -20 7 -30 56 -30 50 0 59 6 37 28 -15 15 -84 16 -93
2z"/>
<path d="M1746 1815 c-5 -14 8 -15 96 -13 70 2 103 7 106 16 3 9 -21 12 -96
12 -81 0 -101 -3 -106 -15z"/>
<path d="M1977 1823 c-17 -16 -3 -23 48 -23 42 0 55 3 55 15 0 11 -12 15 -48
15 -27 0 -52 -3 -55 -7z"/>
<path d="M2110 1815 c0 -11 12 -15 49 -15 34 0 51 4 55 15 4 12 -5 15 -49 15
-42 0 -55 -3 -55 -15z"/>
<path d="M2240 1815 c0 -12 13 -15 55 -15 42 0 55 3 55 15 0 12 -13 15 -55 15
-42 0 -55 -3 -55 -15z"/>
<path d="M2370 1815 c0 -12 13 -15 55 -15 42 0 55 3 55 15 0 12 -13 15 -55 15
-42 0 -55 -3 -55 -15z"/>
<path d="M2510 1815 c0 -11 12 -15 50 -15 38 0 50 4 50 15 0 11 -12 15 -50 15
-38 0 -50 -4 -50 -15z"/>
<path d="M2640 1815 c0 -12 13 -15 55 -15 42 0 55 3 55 15 0 12 -13 15 -55 15
-42 0 -55 -3 -55 -15z"/>
<path d="M2770 1815 c0 -12 13 -15 55 -15 42 0 55 3 55 15 0 12 -13 15 -55 15
-42 0 -55 -3 -55 -15z"/>
<path d="M2902 1818 c3 -8 26 -14 56 -16 42 -2 52 0 52 12 0 13 -12 16 -56 16
-40 0 -55 -4 -52 -12z"/>
<path d="M3040 1815 c0 -12 13 -15 55 -15 44 0 53 3 49 15 -4 11 -21 15 -55
15 -37 0 -49 -4 -49 -15z"/>
<path d="M3170 1816 c0 -13 12 -16 56 -16 73 0 70 24 -4 28 -42 2 -52 0 -52
-12z"/>
<path d="M3302 1818 c3 -9 36 -14 112 -16 84 -2 107 0 104 10 -3 9 -36 14
-112 16 -84 2 -107 0 -104 -10z"/>
<path d="M1726 1765 c-5 -13 14 -15 134 -15 118 0 140 2 140 15 0 13 -22 15
-134 15 -110 0 -135 -3 -140 -15z"/>
<path d="M2026 1765 c-5 -14 3 -16 51 -13 34 2 58 8 61 16 6 19 -104 17 -112
-3z"/>
<path d="M2167 1773 c-17 -16 -3 -23 48 -23 42 0 55 3 55 15 0 11 -12 15 -48
15 -27 0 -52 -3 -55 -7z"/>
<path d="M2300 1765 c0 -12 13 -15 55 -15 42 0 55 3 55 15 0 12 -13 15 -55 15
-42 0 -55 -3 -55 -15z"/>
<path d="M2437 1773 c-17 -16 -3 -23 48 -23 42 0 55 3 55 15 0 11 -12 15 -48
15 -27 0 -52 -3 -55 -7z"/>
<path d="M2570 1765 c0 -12 13 -15 55 -15 42 0 55 3 55 15 0 12 -13 15 -55 15
-42 0 -55 -3 -55 -15z"/>
<path d="M2710 1765 c0 -12 13 -15 55 -15 44 0 53 3 49 15 -4 11 -21 15 -55
15 -37 0 -49 -4 -49 -15z"/>
<path d="M2840 1765 c0 -12 13 -15 55 -15 42 0 55 3 55 15 0 12 -13 15 -55 15
-42 0 -55 -3 -55 -15z"/>
<path d="M2980 1766 c0 -13 12 -16 56 -16 73 0 70 24 -4 28 -42 2 -52 0 -52
-12z"/>
<path d="M3112 1768 c3 -8 26 -14 56 -16 42 -2 52 0 52 12 0 13 -12 16 -56 16
-40 0 -55 -4 -52 -12z"/>
<path d="M3250 1765 c0 -13 23 -15 145 -15 124 0 144 2 139 15 -5 12 -31 15
-145 15 -117 0 -139 -2 -139 -15z"/>
<path d="M1710 1715 c0 -11 13 -15 54 -15 39 0 55 4 60 15 4 12 -5 15 -54 15
-47 0 -60 -3 -60 -15z"/>
<path d="M1846 1715 c-4 -12 5 -15 54 -15 47 0 60 3 60 15 0 11 -13 15 -54 15
-39 0 -55 -4 -60 -15z"/>
<path d="M1986 1715 c-5 -14 3 -16 51 -13 34 2 58 8 61 16 6 19 -104 17 -112
-3z"/>
<path d="M2127 1723 c-18 -17 -1 -23 68 -23 60 0 75 3 75 15 0 12 -14 15 -68
15 -38 0 -72 -3 -75 -7z"/>
<path d="M2296 1715 c-5 -13 31 -15 284 -15 251 0 290 2 290 15 0 23 -565 23
-574 0z"/>
<path d="M2900 1715 c0 -12 15 -15 75 -15 62 0 73 2 69 15 -5 11 -23 15 -75
15 -55 0 -69 -3 -69 -15z"/>
<path d="M3070 1715 c0 -12 13 -15 60 -15 49 0 58 3 54 15 -5 11 -21 15 -60
15 -41 0 -54 -4 -54 -15z"/>
<path d="M3322 1718 c3 -8 27 -14 61 -16 46 -2 57 0 57 13 0 12 -13 15 -61 15
-44 0 -60 -3 -57 -12z"/>
<path d="M3210 1710 c0 -5 23 -10 51 -10 31 0 48 4 44 10 -3 6 -26 10 -51 10
-24 0 -44 -4 -44 -10z"/>
<path d="M3460 1710 c0 -5 23 -10 51 -10 31 0 48 4 44 10 -3 6 -26 10 -51 10
-24 0 -44 -4 -44 -10z"/>
<path d="M4931 2136 c15 -13 69 -35 69 -27 0 5 -14 14 -31 20 -33 11 -45 14
-38 7z"/>
</g>
</svg>
